<svg xmlns="http://www.w3.org/2000/svg" width="346" height="95" viewBox="0 0 346 95" fill="none"><path d="M10.3345 11H7.42676V6.63477H4.06494V11H1.15723V0.291992H4.06494V4.26172H7.42676V0.291992H10.3345V11ZM16.5381 2.55518C17.5879 2.55518 18.4082 2.81641 18.999 3.33887C19.5898 3.85645 19.8853 4.59619 19.8853 5.55811V11H17.9004L17.3511 9.90137H17.2925C17.0581 10.1943 16.8164 10.4336 16.5674 10.6191C16.3232 10.7998 16.0425 10.9316 15.7251 11.0146C15.4077 11.1025 15.0195 11.1465 14.5605 11.1465C14.082 11.1465 13.6523 11.0488 13.2715 10.8535C12.8906 10.6582 12.5903 10.3628 12.3706 9.96729C12.1509 9.57178 12.041 9.07129 12.041 8.46582C12.041 7.57715 12.3486 6.91797 12.9639 6.48828C13.5791 6.05859 14.4702 5.81689 15.6372 5.76318L17.0215 5.71924V5.60205C17.0215 5.23096 16.9287 4.96729 16.7432 4.81104C16.5625 4.65479 16.3184 4.57666 16.0107 4.57666C15.6836 4.57666 15.3174 4.63525 14.9121 4.75244C14.5117 4.86475 14.1089 5.01123 13.7036 5.19189L12.876 3.30225C13.3545 3.05811 13.8965 2.87256 14.502 2.74561C15.1074 2.61865 15.7861 2.55518 16.5381 2.55518ZM17.0361 7.29395L16.377 7.32324C15.8496 7.34277 15.4785 7.43555 15.2637 7.60156C15.0537 7.7627 14.9487 7.99463 14.9487 8.29736C14.9487 8.58057 15.0244 8.79053 15.1758 8.92725C15.3271 9.05908 15.5273 9.125 15.7764 9.125C16.123 9.125 16.4185 9.01514 16.6626 8.79541C16.9116 8.57568 17.0361 8.29004 17.0361 7.93848V7.29395ZM24.5215 2.55518C25.2002 2.55518 25.8179 2.63086 26.3745 2.78223C26.9312 2.92871 27.373 3.16553 27.7002 3.49268C28.0322 3.81982 28.1982 4.25684 28.1982 4.80371C28.1982 5.25293 28.0591 5.63867 27.7808 5.96094C27.5073 6.27832 27.146 6.49805 26.6968 6.62012V6.69336C27.1362 6.75195 27.4902 6.87646 27.7588 7.06689C28.0322 7.25244 28.23 7.48193 28.3521 7.75537C28.479 8.02393 28.5425 8.31934 28.5425 8.6416C28.5425 9.17871 28.396 9.63525 28.103 10.0112C27.8101 10.3823 27.356 10.6655 26.7407 10.8608C26.1304 11.0513 25.3442 11.1465 24.3823 11.1465C23.8794 11.1465 23.4521 11.127 23.1006 11.0879C22.7539 11.0488 22.4463 10.9951 22.1777 10.9268C21.9092 10.8535 21.6406 10.7729 21.3721 10.6851V8.49512C21.7041 8.60742 22.1069 8.72461 22.5806 8.84668C23.0542 8.96387 23.6011 9.02246 24.2212 9.02246C24.646 9.02246 24.9609 8.9834 25.166 8.90527C25.376 8.82227 25.5127 8.72461 25.5762 8.6123C25.6396 8.5 25.6714 8.3999 25.6714 8.31201C25.6714 8.16064 25.6323 8.03613 25.5542 7.93848C25.481 7.83594 25.3296 7.75781 25.1001 7.7041C24.8755 7.65039 24.5312 7.62354 24.0674 7.62354H22.9907V5.76318H23.8916C24.4873 5.76318 24.9023 5.71436 25.1367 5.6167C25.376 5.51416 25.4956 5.35791 25.4956 5.14795C25.4956 4.97705 25.4102 4.84277 25.2393 4.74512C25.0684 4.64746 24.7876 4.59863 24.397 4.59863C24.0015 4.59863 23.6279 4.64258 23.2764 4.73047C22.9297 4.81836 22.5635 4.94775 22.1777 5.11865L21.3721 3.18506C21.8652 2.9751 22.3584 2.81885 22.8516 2.71631C23.3447 2.60889 23.9014 2.55518 24.5215 2.55518ZM37.6758 4.84766C37.6758 5.28223 37.5439 5.67041 37.2803 6.01221C37.0215 6.34912 36.6235 6.56152 36.0864 6.64941V6.70801C36.6772 6.77637 37.1313 6.98145 37.4487 7.32324C37.771 7.66016 37.9321 8.09473 37.9321 8.62695C37.9321 9.04199 37.8198 9.43018 37.5952 9.7915C37.3755 10.1528 36.9849 10.4458 36.4233 10.6704C35.8618 10.8901 35.0732 11 34.0576 11H29.9927V2.70166H34.0723C34.9072 2.70166 35.5884 2.78467 36.1157 2.95068C36.6479 3.11182 37.041 3.35352 37.2949 3.67578C37.5488 3.99316 37.6758 4.38379 37.6758 4.84766ZM35.0171 8.34863C35.0171 8.13379 34.9463 7.96045 34.8047 7.82861C34.668 7.69189 34.3994 7.62354 33.999 7.62354H32.8564V9.125H33.9697C34.3457 9.125 34.6143 9.0542 34.7754 8.9126C34.9365 8.76611 35.0171 8.57812 35.0171 8.34863ZM34.8267 5.22852C34.8267 5.01367 34.7583 4.85254 34.6216 4.74512C34.4849 4.63281 34.2871 4.57666 34.0283 4.57666H32.8564V5.82178H33.9258C34.2285 5.82178 34.4531 5.76562 34.5996 5.65332C34.751 5.54102 34.8267 5.39941 34.8267 5.22852ZM43.4766 2.55518C44.5264 2.55518 45.3467 2.81641 45.9375 3.33887C46.5283 3.85645 46.8237 4.59619 46.8237 5.55811V11H44.8389L44.2896 9.90137H44.231C43.9966 10.1943 43.7549 10.4336 43.5059 10.6191C43.2617 10.7998 42.981 10.9316 42.6636 11.0146C42.3462 11.1025 41.958 11.1465 41.499 11.1465C41.0205 11.1465 40.5908 11.0488 40.21 10.8535C39.8291 10.6582 39.5288 10.3628 39.3091 9.96729C39.0894 9.57178 38.9795 9.07129 38.9795 8.46582C38.9795 7.57715 39.2871 6.91797 39.9023 6.48828C40.5176 6.05859 41.4087 5.81689 42.5757 5.76318L43.96 5.71924V5.60205C43.96 5.23096 43.8672 4.96729 43.6816 4.81104C43.501 4.65479 43.2568 4.57666 42.9492 4.57666C42.6221 4.57666 42.2559 4.63525 41.8506 4.75244C41.4502 4.86475 41.0474 5.01123 40.6421 5.19189L39.8145 3.30225C40.293 3.05811 40.835 2.87256 41.4404 2.74561C42.0459 2.61865 42.7246 2.55518 43.4766 2.55518ZM43.9746 7.29395L43.3154 7.32324C42.7881 7.34277 42.417 7.43555 42.2021 7.60156C41.9922 7.7627 41.8872 7.99463 41.8872 8.29736C41.8872 8.58057 41.9629 8.79053 42.1143 8.92725C42.2656 9.05908 42.4658 9.125 42.7148 9.125C43.0615 9.125 43.3569 9.01514 43.6011 8.79541C43.8501 8.57568 43.9746 8.29004 43.9746 7.93848V7.29395ZM51.6357 2.70166V5.68994H53.9062V2.70166H56.77V11H53.9062V7.82129H51.6357V11H48.772V2.70166H51.6357ZM61.3623 2.70166V5.93164C61.3623 6.10254 61.3574 6.28076 61.3477 6.46631C61.3428 6.64697 61.333 6.82764 61.3184 7.0083C61.3086 7.18896 61.2964 7.36475 61.2817 7.53564C61.272 7.70654 61.2622 7.86523 61.2524 8.01172L64.3872 2.70166H67.5073V11H64.8999V7.99707C64.8999 7.73828 64.9023 7.46973 64.9072 7.19141C64.917 6.91309 64.9292 6.64209 64.9438 6.37842C64.9585 6.11475 64.978 5.87549 65.0024 5.66064L61.8384 11H58.7476V2.70166H61.3623ZM73.2202 2.55518C74.0259 2.55518 74.7217 2.69678 75.3076 2.97998C75.8936 3.2583 76.3452 3.67822 76.6626 4.23975C76.98 4.80127 77.1387 5.50439 77.1387 6.34912V7.62354H72.019C72.0435 8.05811 72.2046 8.41455 72.5024 8.69287C72.8052 8.97119 73.2495 9.11035 73.8354 9.11035C74.353 9.11035 74.8267 9.05908 75.2563 8.95654C75.6909 8.854 76.1377 8.69531 76.5967 8.48047V10.5386C76.1963 10.7485 75.7593 10.9023 75.2856 11C74.812 11.0977 74.2139 11.1465 73.4912 11.1465C72.6562 11.1465 71.9092 10.9976 71.25 10.6997C70.5908 10.4019 70.0708 9.94043 69.6899 9.31543C69.314 8.69043 69.126 7.88721 69.126 6.90576C69.126 5.90967 69.2969 5.0918 69.6387 4.45215C69.9805 3.80762 70.459 3.33154 71.0742 3.02393C71.6895 2.71143 72.4048 2.55518 73.2202 2.55518ZM73.3228 4.50342C72.9858 4.50342 72.7026 4.61084 72.4731 4.82568C72.2485 5.03564 72.1167 5.36768 72.0776 5.82178H74.5386C74.5337 5.57764 74.4849 5.35547 74.3921 5.15527C74.2993 4.95508 74.1626 4.79639 73.9819 4.6792C73.8062 4.56201 73.5864 4.50342 73.3228 4.50342ZM87.7222 2.55518C88.6401 2.55518 89.3604 2.92383 89.8828 3.66113C90.4053 4.39355 90.6665 5.45068 90.6665 6.83252C90.6665 7.7749 90.5347 8.56836 90.271 9.21289C90.0073 9.85254 89.646 10.3359 89.187 10.6631C88.7329 10.9854 88.2153 11.1465 87.6343 11.1465C87.2437 11.1465 86.9116 11.0977 86.6382 11C86.3696 10.9023 86.145 10.7803 85.9644 10.6338C85.7886 10.4873 85.6396 10.3384 85.5176 10.187H85.4297C85.4541 10.3774 85.4736 10.5825 85.4883 10.8022C85.5078 11.022 85.5176 11.2783 85.5176 11.5713V14.6035H82.6538V2.70166H84.9829L85.3857 3.75635H85.5176C85.6543 3.5415 85.8203 3.34375 86.0156 3.16309C86.2109 2.97754 86.4478 2.83105 86.7261 2.72363C87.0093 2.61133 87.3413 2.55518 87.7222 2.55518ZM86.6455 4.80371C86.3672 4.80371 86.1475 4.86963 85.9863 5.00146C85.8252 5.1333 85.708 5.3335 85.6348 5.60205C85.5664 5.86572 85.5273 6.19531 85.5176 6.59082V6.81787C85.5176 7.25732 85.5518 7.62842 85.6201 7.93115C85.6885 8.229 85.8057 8.45605 85.9717 8.6123C86.1377 8.76367 86.3672 8.83936 86.6602 8.83936C86.8994 8.83936 87.0996 8.771 87.2607 8.63428C87.4219 8.49756 87.5439 8.28027 87.627 7.98242C87.71 7.68457 87.7515 7.2915 87.7515 6.80322C87.7515 6.07568 87.6562 5.56055 87.4658 5.25781C87.2803 4.95508 87.0068 4.80371 86.6455 4.80371ZM96.0425 2.55518C96.8481 2.55518 97.5439 2.69678 98.1299 2.97998C98.7158 3.2583 99.1675 3.67822 99.4849 4.23975C99.8022 4.80127 99.9609 5.50439 99.9609 6.34912V7.62354H94.8413C94.8657 8.05811 95.0269 8.41455 95.3247 8.69287C95.6274 8.97119 96.0718 9.11035 96.6577 9.11035C97.1753 9.11035 97.6489 9.05908 98.0786 8.95654C98.5132 8.854 98.96 8.69531 99.4189 8.48047V10.5386C99.0186 10.7485 98.5815 10.9023 98.1079 11C97.6343 11.0977 97.0361 11.1465 96.3135 11.1465C95.4785 11.1465 94.7314 10.9976 94.0723 10.6997C93.4131 10.4019 92.8931 9.94043 92.5122 9.31543C92.1362 8.69043 91.9482 7.88721 91.9482 6.90576C91.9482 5.90967 92.1191 5.0918 92.4609 4.45215C92.8027 3.80762 93.2812 3.33154 93.8965 3.02393C94.5117 2.71143 95.2271 2.55518 96.0425 2.55518ZM96.145 4.50342C95.8081 4.50342 95.5249 4.61084 95.2954 4.82568C95.0708 5.03564 94.939 5.36768 94.8999 5.82178H97.3608C97.356 5.57764 97.3071 5.35547 97.2144 5.15527C97.1216 4.95508 96.9849 4.79639 96.8042 4.6792C96.6284 4.56201 96.4087 4.50342 96.145 4.50342ZM105.359 11.1465C104.519 11.1465 103.789 10.9976 103.169 10.6997C102.549 10.397 102.068 9.93311 101.726 9.30811C101.389 8.67822 101.221 7.87256 101.221 6.89111C101.221 5.88525 101.409 5.0625 101.785 4.42285C102.166 3.7832 102.686 3.31201 103.345 3.00928C104.004 2.70654 104.751 2.55518 105.586 2.55518C106.094 2.55518 106.575 2.61133 107.029 2.72363C107.488 2.83594 107.913 2.98975 108.303 3.18506L107.461 5.30176C107.119 5.15039 106.799 5.03076 106.501 4.94287C106.208 4.8501 105.903 4.80371 105.586 4.80371C105.298 4.80371 105.044 4.87939 104.824 5.03076C104.604 5.18213 104.434 5.41162 104.312 5.71924C104.189 6.02197 104.128 6.40771 104.128 6.87646C104.128 7.35498 104.189 7.74072 104.312 8.03369C104.438 8.32666 104.612 8.53906 104.832 8.6709C105.056 8.80273 105.312 8.86865 105.601 8.86865C106.016 8.86865 106.428 8.80518 106.838 8.67822C107.253 8.54639 107.646 8.36572 108.018 8.13623V10.4141C107.676 10.6387 107.29 10.8169 106.86 10.9487C106.431 11.0806 105.93 11.1465 105.359 11.1465ZM117.363 4.83301H114.631V11H111.768V4.83301H109.036V2.70166H117.363V4.83301ZM126.643 6.83252C126.643 7.52588 126.548 8.14111 126.357 8.67822C126.167 9.21533 125.891 9.66699 125.53 10.0332C125.168 10.3994 124.731 10.6777 124.219 10.8682C123.706 11.0537 123.127 11.1465 122.483 11.1465C121.882 11.1465 121.331 11.0537 120.828 10.8682C120.33 10.6777 119.895 10.3994 119.524 10.0332C119.153 9.66699 118.865 9.21533 118.66 8.67822C118.459 8.14111 118.359 7.52588 118.359 6.83252C118.359 5.91455 118.525 5.13818 118.857 4.50342C119.194 3.86865 119.673 3.38525 120.293 3.05322C120.918 2.72119 121.663 2.55518 122.527 2.55518C123.323 2.55518 124.031 2.72119 124.651 3.05322C125.271 3.38525 125.757 3.86865 126.108 4.50342C126.465 5.13818 126.643 5.91455 126.643 6.83252ZM121.267 6.83252C121.267 7.30615 121.309 7.70654 121.392 8.03369C121.475 8.35596 121.606 8.60254 121.787 8.77344C121.973 8.93945 122.214 9.02246 122.512 9.02246C122.81 9.02246 123.047 8.93945 123.223 8.77344C123.398 8.60254 123.525 8.35596 123.604 8.03369C123.687 7.70654 123.728 7.30615 123.728 6.83252C123.728 6.35889 123.687 5.96338 123.604 5.646C123.525 5.32861 123.396 5.08936 123.215 4.92822C123.04 4.76709 122.8 4.68652 122.498 4.68652C122.063 4.68652 121.748 4.86719 121.553 5.22852C121.362 5.58984 121.267 6.12451 121.267 6.83252ZM133.352 2.55518C134.27 2.55518 134.99 2.92383 135.513 3.66113C136.035 4.39355 136.296 5.45068 136.296 6.83252C136.296 7.7749 136.165 8.56836 135.901 9.21289C135.637 9.85254 135.276 10.3359 134.817 10.6631C134.363 10.9854 133.845 11.1465 133.264 11.1465C132.874 11.1465 132.542 11.0977 132.268 11C132 10.9023 131.775 10.7803 131.594 10.6338C131.418 10.4873 131.27 10.3384 131.147 10.187H131.06C131.084 10.3774 131.104 10.5825 131.118 10.8022C131.138 11.022 131.147 11.2783 131.147 11.5713V14.6035H128.284V2.70166H130.613L131.016 3.75635H131.147C131.284 3.5415 131.45 3.34375 131.646 3.16309C131.841 2.97754 132.078 2.83105 132.356 2.72363C132.639 2.61133 132.971 2.55518 133.352 2.55518ZM132.275 4.80371C131.997 4.80371 131.777 4.86963 131.616 5.00146C131.455 5.1333 131.338 5.3335 131.265 5.60205C131.196 5.86572 131.157 6.19531 131.147 6.59082V6.81787C131.147 7.25732 131.182 7.62842 131.25 7.93115C131.318 8.229 131.436 8.45605 131.602 8.6123C131.768 8.76367 131.997 8.83936 132.29 8.83936C132.529 8.83936 132.729 8.771 132.891 8.63428C133.052 8.49756 133.174 8.28027 133.257 7.98242C133.34 7.68457 133.381 7.2915 133.381 6.80322C133.381 6.07568 133.286 5.56055 133.096 5.25781C132.91 4.95508 132.637 4.80371 132.275 4.80371ZM141.987 2.55518C143.037 2.55518 143.857 2.81641 144.448 3.33887C145.039 3.85645 145.334 4.59619 145.334 5.55811V11H143.35L142.8 9.90137H142.742C142.507 10.1943 142.266 10.4336 142.017 10.6191C141.772 10.7998 141.492 10.9316 141.174 11.0146C140.857 11.1025 140.469 11.1465 140.01 11.1465C139.531 11.1465 139.102 11.0488 138.721 10.8535C138.34 10.6582 138.04 10.3628 137.82 9.96729C137.6 9.57178 137.49 9.07129 137.49 8.46582C137.49 7.57715 137.798 6.91797 138.413 6.48828C139.028 6.05859 139.919 5.81689 141.086 5.76318L142.471 5.71924V5.60205C142.471 5.23096 142.378 4.96729 142.192 4.81104C142.012 4.65479 141.768 4.57666 141.46 4.57666C141.133 4.57666 140.767 4.63525 140.361 4.75244C139.961 4.86475 139.558 5.01123 139.153 5.19189L138.325 3.30225C138.804 3.05811 139.346 2.87256 139.951 2.74561C140.557 2.61865 141.235 2.55518 141.987 2.55518ZM142.485 7.29395L141.826 7.32324C141.299 7.34277 140.928 7.43555 140.713 7.60156C140.503 7.7627 140.398 7.99463 140.398 8.29736C140.398 8.58057 140.474 8.79053 140.625 8.92725C140.776 9.05908 140.977 9.125 141.226 9.125C141.572 9.125 141.868 9.01514 142.112 8.79541C142.361 8.57568 142.485 8.29004 142.485 7.93848V7.29395ZM150.146 2.70166V5.68994H152.417V2.70166H155.281V11H152.417V7.82129H150.146V11H147.283V2.70166H150.146ZM161.309 2.55518C162.358 2.55518 163.179 2.81641 163.77 3.33887C164.36 3.85645 164.656 4.59619 164.656 5.55811V11H162.671L162.122 9.90137H162.063C161.829 10.1943 161.587 10.4336 161.338 10.6191C161.094 10.7998 160.813 10.9316 160.496 11.0146C160.178 11.1025 159.79 11.1465 159.331 11.1465C158.853 11.1465 158.423 11.0488 158.042 10.8535C157.661 10.6582 157.361 10.3628 157.141 9.96729C156.921 9.57178 156.812 9.07129 156.812 8.46582C156.812 7.57715 157.119 6.91797 157.734 6.48828C158.35 6.05859 159.241 5.81689 160.408 5.76318L161.792 5.71924V5.60205C161.792 5.23096 161.699 4.96729 161.514 4.81104C161.333 4.65479 161.089 4.57666 160.781 4.57666C160.454 4.57666 160.088 4.63525 159.683 4.75244C159.282 4.86475 158.879 5.01123 158.474 5.19189L157.646 3.30225C158.125 3.05811 158.667 2.87256 159.272 2.74561C159.878 2.61865 160.557 2.55518 161.309 2.55518ZM161.807 7.29395L161.147 7.32324C160.62 7.34277 160.249 7.43555 160.034 7.60156C159.824 7.7627 159.719 7.99463 159.719 8.29736C159.719 8.58057 159.795 8.79053 159.946 8.92725C160.098 9.05908 160.298 9.125 160.547 9.125C160.894 9.125 161.189 9.01514 161.433 8.79541C161.682 8.57568 161.807 8.29004 161.807 7.93848V7.29395ZM178.374 2.70166V11H175.51V4.83301H173.364V11H170.5V2.70166H178.374ZM185.427 2.55518C186.345 2.55518 187.065 2.92383 187.588 3.66113C188.11 4.39355 188.372 5.45068 188.372 6.83252C188.372 7.7749 188.24 8.56836 187.976 9.21289C187.712 9.85254 187.351 10.3359 186.892 10.6631C186.438 10.9854 185.92 11.1465 185.339 11.1465C184.949 11.1465 184.617 11.0977 184.343 11C184.075 10.9023 183.85 10.7803 183.669 10.6338C183.494 10.4873 183.345 10.3384 183.223 10.187H183.135C183.159 10.3774 183.179 10.5825 183.193 10.8022C183.213 11.022 183.223 11.2783 183.223 11.5713V14.6035H180.359V2.70166H182.688L183.091 3.75635H183.223C183.359 3.5415 183.525 3.34375 183.721 3.16309C183.916 2.97754 184.153 2.83105 184.431 2.72363C184.714 2.61133 185.046 2.55518 185.427 2.55518ZM184.351 4.80371C184.072 4.80371 183.853 4.86963 183.691 5.00146C183.53 5.1333 183.413 5.3335 183.34 5.60205C183.271 5.86572 183.232 6.19531 183.223 6.59082V6.81787C183.223 7.25732 183.257 7.62842 183.325 7.93115C183.394 8.229 183.511 8.45605 183.677 8.6123C183.843 8.76367 184.072 8.83936 184.365 8.83936C184.604 8.83936 184.805 8.771 184.966 8.63428C185.127 8.49756 185.249 8.28027 185.332 7.98242C185.415 7.68457 185.457 7.2915 185.457 6.80322C185.457 6.07568 185.361 5.56055 185.171 5.25781C184.985 4.95508 184.712 4.80371 184.351 4.80371ZM197.937 6.83252C197.937 7.52588 197.842 8.14111 197.651 8.67822C197.461 9.21533 197.185 9.66699 196.824 10.0332C196.462 10.3994 196.025 10.6777 195.513 10.8682C195 11.0537 194.421 11.1465 193.777 11.1465C193.176 11.1465 192.625 11.0537 192.122 10.8682C191.624 10.6777 191.189 10.3994 190.818 10.0332C190.447 9.66699 190.159 9.21533 189.954 8.67822C189.753 8.14111 189.653 7.52588 189.653 6.83252C189.653 5.91455 189.819 5.13818 190.151 4.50342C190.488 3.86865 190.967 3.38525 191.587 3.05322C192.212 2.72119 192.957 2.55518 193.821 2.55518C194.617 2.55518 195.325 2.72119 195.945 3.05322C196.565 3.38525 197.051 3.86865 197.402 4.50342C197.759 5.13818 197.937 5.91455 197.937 6.83252ZM192.561 6.83252C192.561 7.30615 192.603 7.70654 192.686 8.03369C192.769 8.35596 192.9 8.60254 193.081 8.77344C193.267 8.93945 193.508 9.02246 193.806 9.02246C194.104 9.02246 194.341 8.93945 194.517 8.77344C194.692 8.60254 194.819 8.35596 194.897 8.03369C194.98 7.70654 195.022 7.30615 195.022 6.83252C195.022 6.35889 194.98 5.96338 194.897 5.646C194.819 5.32861 194.69 5.08936 194.509 4.92822C194.333 4.76709 194.094 4.68652 193.792 4.68652C193.357 4.68652 193.042 4.86719 192.847 5.22852C192.656 5.58984 192.561 6.12451 192.561 6.83252ZM202.192 2.70166V5.93164C202.192 6.10254 202.188 6.28076 202.178 6.46631C202.173 6.64697 202.163 6.82764 202.148 7.0083C202.139 7.18896 202.126 7.36475 202.112 7.53564C202.102 7.70654 202.092 7.86523 202.083 8.01172L205.217 2.70166H208.337V11H205.73V7.99707C205.73 7.73828 205.732 7.46973 205.737 7.19141C205.747 6.91309 205.759 6.64209 205.774 6.37842C205.789 6.11475 205.808 5.87549 205.833 5.66064L202.668 11H199.578V2.70166H202.192ZM214.094 11.1465C213.254 11.1465 212.524 10.9976 211.904 10.6997C211.284 10.397 210.803 9.93311 210.461 9.30811C210.125 8.67822 209.956 7.87256 209.956 6.89111C209.956 5.88525 210.144 5.0625 210.52 4.42285C210.901 3.7832 211.421 3.31201 212.08 3.00928C212.739 2.70654 213.486 2.55518 214.321 2.55518C214.829 2.55518 215.31 2.61133 215.764 2.72363C216.223 2.83594 216.648 2.98975 217.039 3.18506L216.196 5.30176C215.854 5.15039 215.535 5.03076 215.237 4.94287C214.944 4.8501 214.639 4.80371 214.321 4.80371C214.033 4.80371 213.779 4.87939 213.56 5.03076C213.34 5.18213 213.169 5.41162 213.047 5.71924C212.925 6.02197 212.864 6.40771 212.864 6.87646C212.864 7.35498 212.925 7.74072 213.047 8.03369C213.174 8.32666 213.347 8.53906 213.567 8.6709C213.792 8.80273 214.048 8.86865 214.336 8.86865C214.751 8.86865 215.164 8.80518 215.574 8.67822C215.989 8.54639 216.382 8.36572 216.753 8.13623V10.4141C216.411 10.6387 216.025 10.8169 215.596 10.9487C215.166 11.0806 214.666 11.1465 214.094 11.1465ZM220.159 6.7666L217.625 2.70166H220.876L222.136 5.03076L223.425 2.70166H226.685L224.084 6.7666L226.787 11H223.535L222.136 8.48047L220.745 11H217.485L220.159 6.7666ZM235.774 6.83252C235.774 7.52588 235.679 8.14111 235.488 8.67822C235.298 9.21533 235.022 9.66699 234.661 10.0332C234.299 10.3994 233.862 10.6777 233.35 10.8682C232.837 11.0537 232.258 11.1465 231.614 11.1465C231.013 11.1465 230.461 11.0537 229.958 10.8682C229.46 10.6777 229.026 10.3994 228.655 10.0332C228.284 9.66699 227.996 9.21533 227.791 8.67822C227.59 8.14111 227.49 7.52588 227.49 6.83252C227.49 5.91455 227.656 5.13818 227.988 4.50342C228.325 3.86865 228.804 3.38525 229.424 3.05322C230.049 2.72119 230.793 2.55518 231.658 2.55518C232.454 2.55518 233.162 2.72119 233.782 3.05322C234.402 3.38525 234.888 3.86865 235.239 4.50342C235.596 5.13818 235.774 5.91455 235.774 6.83252ZM230.398 6.83252C230.398 7.30615 230.439 7.70654 230.522 8.03369C230.605 8.35596 230.737 8.60254 230.918 8.77344C231.104 8.93945 231.345 9.02246 231.643 9.02246C231.941 9.02246 232.178 8.93945 232.354 8.77344C232.529 8.60254 232.656 8.35596 232.734 8.03369C232.817 7.70654 232.859 7.30615 232.859 6.83252C232.859 6.35889 232.817 5.96338 232.734 5.646C232.656 5.32861 232.527 5.08936 232.346 4.92822C232.17 4.76709 231.931 4.68652 231.628 4.68652C231.194 4.68652 230.879 4.86719 230.684 5.22852C230.493 5.58984 230.398 6.12451 230.398 6.83252ZM245.471 2.70166V8.86865H246.702V14.0469H244.197V11H239.114V14.0469H236.609V8.86865H237.341C237.629 8.37549 237.886 7.80176 238.11 7.14746C238.34 6.49316 238.53 5.7876 238.682 5.03076C238.838 4.27393 238.95 3.49756 239.019 2.70166H245.471ZM242.607 4.83301H241.223C241.16 5.30664 241.084 5.76318 240.996 6.20264C240.908 6.63721 240.798 7.07178 240.667 7.50635C240.54 7.94092 240.386 8.39502 240.205 8.86865H242.607V4.83301ZM250.488 2.70166V5.93164C250.488 6.10254 250.483 6.28076 250.474 6.46631C250.469 6.64697 250.459 6.82764 250.444 7.0083C250.435 7.18896 250.422 7.36475 250.408 7.53564C250.398 7.70654 250.388 7.86523 250.378 8.01172L253.513 2.70166H256.633V11H254.026V7.99707C254.026 7.73828 254.028 7.46973 254.033 7.19141C254.043 6.91309 254.055 6.64209 254.07 6.37842C254.084 6.11475 254.104 5.87549 254.128 5.66064L250.964 11H247.874V2.70166H250.488ZM266.309 4.83301H263.577V11H260.713V4.83301H257.981V2.70166H266.309V4.83301ZM279.485 6.83252C279.485 7.52588 279.39 8.14111 279.199 8.67822C279.009 9.21533 278.733 9.66699 278.372 10.0332C278.01 10.3994 277.573 10.6777 277.061 10.8682C276.548 11.0537 275.969 11.1465 275.325 11.1465C274.724 11.1465 274.172 11.0537 273.669 10.8682C273.171 10.6777 272.737 10.3994 272.366 10.0332C271.995 9.66699 271.707 9.21533 271.501 8.67822C271.301 8.14111 271.201 7.52588 271.201 6.83252C271.201 5.91455 271.367 5.13818 271.699 4.50342C272.036 3.86865 272.515 3.38525 273.135 3.05322C273.76 2.72119 274.504 2.55518 275.369 2.55518C276.165 2.55518 276.873 2.72119 277.493 3.05322C278.113 3.38525 278.599 3.86865 278.95 4.50342C279.307 5.13818 279.485 5.91455 279.485 6.83252ZM274.109 6.83252C274.109 7.30615 274.15 7.70654 274.233 8.03369C274.316 8.35596 274.448 8.60254 274.629 8.77344C274.814 8.93945 275.056 9.02246 275.354 9.02246C275.652 9.02246 275.889 8.93945 276.064 8.77344C276.24 8.60254 276.367 8.35596 276.445 8.03369C276.528 7.70654 276.57 7.30615 276.57 6.83252C276.57 6.35889 276.528 5.96338 276.445 5.646C276.367 5.32861 276.238 5.08936 276.057 4.92822C275.881 4.76709 275.642 4.68652 275.339 4.68652C274.905 4.68652 274.59 4.86719 274.395 5.22852C274.204 5.58984 274.109 6.12451 274.109 6.83252ZM288.823 4.83301H286.091V11H283.228V4.83301H280.496V2.70166H288.823V4.83301ZM3.85254 22.7017V25.6899H6.12305V22.7017H8.98682V31H6.12305V27.8213H3.85254V31H0.98877V22.7017H3.85254ZM14.6997 22.5552C15.5054 22.5552 16.2012 22.6968 16.7871 22.98C17.373 23.2583 17.8247 23.6782 18.1421 24.2397C18.4595 24.8013 18.6182 25.5044 18.6182 26.3491V27.6235H13.4985C13.5229 28.0581 13.6841 28.4146 13.9819 28.6929C14.2847 28.9712 14.729 29.1104 15.3149 29.1104C15.8325 29.1104 16.3062 29.0591 16.7358 28.9565C17.1704 28.854 17.6172 28.6953 18.0762 28.4805V30.5386C17.6758 30.7485 17.2388 30.9023 16.7651 31C16.2915 31.0977 15.6934 31.1465 14.9707 31.1465C14.1357 31.1465 13.3887 30.9976 12.7295 30.6997C12.0703 30.4019 11.5503 29.9404 11.1694 29.3154C10.7935 28.6904 10.6055 27.8872 10.6055 26.9058C10.6055 25.9097 10.7764 25.0918 11.1182 24.4521C11.46 23.8076 11.9385 23.3315 12.5537 23.0239C13.1689 22.7114 13.8843 22.5552 14.6997 22.5552ZM14.8022 24.5034C14.4653 24.5034 14.1821 24.6108 13.9526 24.8257C13.728 25.0356 13.5962 25.3677 13.5571 25.8218H16.0181C16.0132 25.5776 15.9644 25.3555 15.8716 25.1553C15.7788 24.9551 15.6421 24.7964 15.4614 24.6792C15.2856 24.562 15.0659 24.5034 14.8022 24.5034ZM31.1426 22.7017V31H28.5938V26.979C28.5938 26.5835 28.6011 26.1953 28.6157 25.8145C28.6304 25.4336 28.6523 25.082 28.6816 24.7598H28.6377L26.6748 31H24.7266L22.7563 24.7451H22.7124C22.7417 25.0723 22.7637 25.4238 22.7783 25.7998C22.793 26.1758 22.8003 26.5884 22.8003 27.0376V31H20.2515V22.7017H24.1553L25.7153 27.7334L27.3047 22.7017H31.1426ZM36.8628 22.5552C37.6685 22.5552 38.3643 22.6968 38.9502 22.98C39.5361 23.2583 39.9878 23.6782 40.3052 24.2397C40.6226 24.8013 40.7812 25.5044 40.7812 26.3491V27.6235H35.6616C35.686 28.0581 35.8472 28.4146 36.145 28.6929C36.4478 28.9712 36.8921 29.1104 37.478 29.1104C37.9956 29.1104 38.4692 29.0591 38.8989 28.9565C39.3335 28.854 39.7803 28.6953 40.2393 28.4805V30.5386C39.8389 30.7485 39.4019 30.9023 38.9282 31C38.4546 31.0977 37.8564 31.1465 37.1338 31.1465C36.2988 31.1465 35.5518 30.9976 34.8926 30.6997C34.2334 30.4019 33.7134 29.9404 33.3325 29.3154C32.9565 28.6904 32.7686 27.8872 32.7686 26.9058C32.7686 25.9097 32.9395 25.0918 33.2812 24.4521C33.623 23.8076 34.1016 23.3315 34.7168 23.0239C35.332 22.7114 36.0474 22.5552 36.8628 22.5552ZM36.9653 24.5034C36.6284 24.5034 36.3452 24.6108 36.1157 24.8257C35.8911 25.0356 35.7593 25.3677 35.7202 25.8218H38.1812C38.1763 25.5776 38.1274 25.3555 38.0347 25.1553C37.9419 24.9551 37.8052 24.7964 37.6245 24.6792C37.4487 24.562 37.229 24.5034 36.9653 24.5034ZM52.6465 34.0469H50.1416V31H42.3999V22.7017H45.2637V28.8687H47.9224V22.7017H50.7861V28.8687H52.6465V34.0469ZM59.6338 22.7017H62.7979L59.6924 26.6787L63.0396 31H59.7656L56.6895 26.7886V31H53.8257V22.7017H56.6895V26.7227L59.6338 22.7017ZM71.8872 26.8325C71.8872 27.5259 71.792 28.1411 71.6016 28.6782C71.4111 29.2153 71.1353 29.667 70.7739 30.0332C70.4126 30.3994 69.9756 30.6777 69.4629 30.8682C68.9502 31.0537 68.3716 31.1465 67.7271 31.1465C67.1265 31.1465 66.5747 31.0537 66.0718 30.8682C65.5737 30.6777 65.1392 30.3994 64.7681 30.0332C64.397 29.667 64.1089 29.2153 63.9038 28.6782C63.7036 28.1411 63.6035 27.5259 63.6035 26.8325C63.6035 25.9146 63.7695 25.1382 64.1016 24.5034C64.4385 23.8687 64.917 23.3853 65.5371 23.0532C66.1621 22.7212 66.9067 22.5552 67.771 22.5552C68.5669 22.5552 69.2749 22.7212 69.895 23.0532C70.5151 23.3853 71.001 23.8687 71.3525 24.5034C71.709 25.1382 71.8872 25.9146 71.8872 26.8325ZM66.5112 26.8325C66.5112 27.3062 66.5527 27.7065 66.6357 28.0337C66.7188 28.356 66.8506 28.6025 67.0312 28.7734C67.2168 28.9395 67.4585 29.0225 67.7563 29.0225C68.0542 29.0225 68.291 28.9395 68.4668 28.7734C68.6426 28.6025 68.7695 28.356 68.8477 28.0337C68.9307 27.7065 68.9722 27.3062 68.9722 26.8325C68.9722 26.3589 68.9307 25.9634 68.8477 25.646C68.7695 25.3286 68.6401 25.0894 68.4595 24.9282C68.2837 24.7671 68.0444 24.6865 67.7417 24.6865C67.3071 24.6865 66.9922 24.8672 66.7969 25.2285C66.6064 25.5898 66.5112 26.1245 66.5112 26.8325ZM79.6948 22.7017V24.833H76.3916V31H73.5278V22.7017H79.6948ZM88.9673 26.8325C88.9673 27.5259 88.8721 28.1411 88.6816 28.6782C88.4912 29.2153 88.2153 29.667 87.854 30.0332C87.4927 30.3994 87.0557 30.6777 86.543 30.8682C86.0303 31.0537 85.4517 31.1465 84.8071 31.1465C84.2065 31.1465 83.6548 31.0537 83.1519 30.8682C82.6538 30.6777 82.2192 30.3994 81.8481 30.0332C81.4771 29.667 81.189 29.2153 80.9839 28.6782C80.7837 28.1411 80.6836 27.5259 80.6836 26.8325C80.6836 25.9146 80.8496 25.1382 81.1816 24.5034C81.5186 23.8687 81.9971 23.3853 82.6172 23.0532C83.2422 22.7212 83.9868 22.5552 84.8511 22.5552C85.647 22.5552 86.355 22.7212 86.9751 23.0532C87.5952 23.3853 88.0811 23.8687 88.4326 24.5034C88.7891 25.1382 88.9673 25.9146 88.9673 26.8325ZM83.5913 26.8325C83.5913 27.3062 83.6328 27.7065 83.7158 28.0337C83.7988 28.356 83.9307 28.6025 84.1113 28.7734C84.2969 28.9395 84.5386 29.0225 84.8364 29.0225C85.1343 29.0225 85.3711 28.9395 85.5469 28.7734C85.7227 28.6025 85.8496 28.356 85.9277 28.0337C86.0107 27.7065 86.0522 27.3062 86.0522 26.8325C86.0522 26.3589 86.0107 25.9634 85.9277 25.646C85.8496 25.3286 85.7202 25.0894 85.5396 24.9282C85.3638 24.7671 85.1245 24.6865 84.8218 24.6865C84.3872 24.6865 84.0723 24.8672 83.877 25.2285C83.6865 25.5898 83.5913 26.1245 83.5913 26.8325ZM98.2837 31.1465C97.4438 31.1465 96.7139 30.9976 96.0938 30.6997C95.4736 30.397 94.9927 29.9331 94.6509 29.3081C94.314 28.6782 94.1455 27.8726 94.1455 26.8911C94.1455 25.8853 94.3335 25.0625 94.7095 24.4229C95.0903 23.7832 95.6104 23.312 96.2695 23.0093C96.9287 22.7065 97.6758 22.5552 98.5107 22.5552C99.0186 22.5552 99.4995 22.6113 99.9536 22.7236C100.413 22.8359 100.837 22.9897 101.228 23.1851L100.386 25.3018C100.044 25.1504 99.7241 25.0308 99.4263 24.9429C99.1333 24.8501 98.8281 24.8037 98.5107 24.8037C98.2227 24.8037 97.9688 24.8794 97.749 25.0308C97.5293 25.1821 97.3584 25.4116 97.2363 25.7192C97.1143 26.022 97.0532 26.4077 97.0532 26.8765C97.0532 27.355 97.1143 27.7407 97.2363 28.0337C97.3633 28.3267 97.5366 28.5391 97.7563 28.6709C97.981 28.8027 98.2373 28.8687 98.5254 28.8687C98.9404 28.8687 99.353 28.8052 99.7632 28.6782C100.178 28.5464 100.571 28.3657 100.942 28.1362V30.4141C100.601 30.6387 100.215 30.8169 99.7852 30.9487C99.3555 31.0806 98.855 31.1465 98.2837 31.1465ZM110.918 31H108.054V24.833H106.37C106.267 25.9854 106.14 26.9644 105.989 27.77C105.842 28.5708 105.645 29.2202 105.396 29.7183C105.146 30.2163 104.829 30.5801 104.443 30.8096C104.062 31.0342 103.586 31.1465 103.015 31.1465C102.791 31.1465 102.559 31.1245 102.319 31.0806C102.085 31.0415 101.885 30.9902 101.719 30.9268V28.7954C101.816 28.8442 101.917 28.8784 102.019 28.8979C102.126 28.9175 102.241 28.9272 102.363 28.9272C102.485 28.9272 102.6 28.8882 102.708 28.8101C102.815 28.7319 102.917 28.5757 103.015 28.3413C103.118 28.1069 103.213 27.7627 103.301 27.3086C103.389 26.8496 103.474 26.2466 103.557 25.4995C103.64 24.7524 103.718 23.8198 103.792 22.7017H110.918V31ZM120.828 26.8325C120.828 27.5259 120.732 28.1411 120.542 28.6782C120.352 29.2153 120.076 29.667 119.714 30.0332C119.353 30.3994 118.916 30.6777 118.403 30.8682C117.891 31.0537 117.312 31.1465 116.667 31.1465C116.067 31.1465 115.515 31.0537 115.012 30.8682C114.514 30.6777 114.08 30.3994 113.708 30.0332C113.337 29.667 113.049 29.2153 112.844 28.6782C112.644 28.1411 112.544 27.5259 112.544 26.8325C112.544 25.9146 112.71 25.1382 113.042 24.5034C113.379 23.8687 113.857 23.3853 114.478 23.0532C115.103 22.7212 115.847 22.5552 116.711 22.5552C117.507 22.5552 118.215 22.7212 118.835 23.0532C119.456 23.3853 119.941 23.8687 120.293 24.5034C120.649 25.1382 120.828 25.9146 120.828 26.8325ZM115.452 26.8325C115.452 27.3062 115.493 27.7065 115.576 28.0337C115.659 28.356 115.791 28.6025 115.972 28.7734C116.157 28.9395 116.399 29.0225 116.697 29.0225C116.995 29.0225 117.231 28.9395 117.407 28.7734C117.583 28.6025 117.71 28.356 117.788 28.0337C117.871 27.7065 117.913 27.3062 117.913 26.8325C117.913 26.3589 117.871 25.9634 117.788 25.646C117.71 25.3286 117.581 25.0894 117.4 24.9282C117.224 24.7671 116.985 24.6865 116.682 24.6865C116.248 24.6865 115.933 24.8672 115.737 25.2285C115.547 25.5898 115.452 26.1245 115.452 26.8325ZM130.151 24.8477C130.151 25.2822 130.02 25.6704 129.756 26.0122C129.497 26.3491 129.099 26.5615 128.562 26.6494V26.708C129.153 26.7764 129.607 26.9814 129.924 27.3232C130.247 27.6602 130.408 28.0947 130.408 28.627C130.408 29.042 130.295 29.4302 130.071 29.7915C129.851 30.1528 129.46 30.4458 128.899 30.6704C128.337 30.8901 127.549 31 126.533 31H122.468V22.7017H126.548C127.383 22.7017 128.064 22.7847 128.591 22.9507C129.124 23.1118 129.517 23.3535 129.771 23.6758C130.024 23.9932 130.151 24.3838 130.151 24.8477ZM127.493 28.3486C127.493 28.1338 127.422 27.9604 127.28 27.8286C127.144 27.6919 126.875 27.6235 126.475 27.6235H125.332V29.125H126.445C126.821 29.125 127.09 29.0542 127.251 28.9126C127.412 28.7661 127.493 28.5781 127.493 28.3486ZM127.302 25.2285C127.302 25.0137 127.234 24.8525 127.097 24.7451C126.96 24.6328 126.763 24.5767 126.504 24.5767H125.332V25.8218H126.401C126.704 25.8218 126.929 25.7656 127.075 25.6533C127.227 25.541 127.302 25.3994 127.302 25.2285ZM135.952 22.5552C137.002 22.5552 137.822 22.8164 138.413 23.3389C139.004 23.8564 139.299 24.5962 139.299 25.5581V31H137.314L136.765 29.9014H136.707C136.472 30.1943 136.23 30.4336 135.981 30.6191C135.737 30.7998 135.457 30.9316 135.139 31.0146C134.822 31.1025 134.434 31.1465 133.975 31.1465C133.496 31.1465 133.066 31.0488 132.686 30.8535C132.305 30.6582 132.004 30.3628 131.785 29.9673C131.565 29.5718 131.455 29.0713 131.455 28.4658C131.455 27.5771 131.763 26.918 132.378 26.4883C132.993 26.0586 133.884 25.8169 135.051 25.7632L136.436 25.7192V25.6021C136.436 25.231 136.343 24.9673 136.157 24.811C135.977 24.6548 135.732 24.5767 135.425 24.5767C135.098 24.5767 134.731 24.6353 134.326 24.7524C133.926 24.8647 133.523 25.0112 133.118 25.1919L132.29 23.3022C132.769 23.0581 133.311 22.8726 133.916 22.7456C134.521 22.6187 135.2 22.5552 135.952 22.5552ZM136.45 27.2939L135.791 27.3232C135.264 27.3428 134.893 27.4355 134.678 27.6016C134.468 27.7627 134.363 27.9946 134.363 28.2974C134.363 28.5806 134.438 28.7905 134.59 28.9272C134.741 29.0591 134.941 29.125 135.19 29.125C135.537 29.125 135.833 29.0151 136.077 28.7954C136.326 28.5757 136.45 28.29 136.45 27.9385V27.2939ZM144.697 26.6934L147.546 23.1558L149.597 24.2471L147.605 26.7886L149.597 29.3374L147.546 30.4141L144.697 26.8911V26.6934ZM148.909 26.6934L151.743 23.1558L153.816 24.2471L151.802 26.7886L153.816 29.3374L151.743 30.4141L148.909 26.8911V26.6934ZM159.836 24.7305H164.458V30.502C163.906 30.6924 163.274 30.8486 162.561 30.9707C161.848 31.0879 161.101 31.1465 160.32 31.1465C159.29 31.1465 158.386 30.9463 157.61 30.5459C156.833 30.1455 156.228 29.5376 155.793 28.7222C155.359 27.9019 155.142 26.8667 155.142 25.6167C155.142 24.4937 155.356 23.5244 155.786 22.709C156.216 21.8887 156.848 21.2563 157.683 20.812C158.523 20.3628 159.551 20.1382 160.767 20.1382C161.436 20.1382 162.07 20.2017 162.671 20.3286C163.271 20.4556 163.794 20.6167 164.238 20.812L163.323 23.0825C162.937 22.8921 162.537 22.7505 162.122 22.6577C161.707 22.5601 161.26 22.5112 160.781 22.5112C160.142 22.5112 159.626 22.6553 159.236 22.9434C158.85 23.2314 158.569 23.6172 158.394 24.1006C158.218 24.5791 158.13 25.1089 158.13 25.6899C158.13 26.354 158.223 26.9155 158.408 27.3745C158.599 27.8286 158.875 28.1753 159.236 28.4146C159.602 28.6489 160.044 28.7661 160.562 28.7661C160.732 28.7661 160.94 28.7539 161.184 28.7295C161.433 28.7051 161.621 28.6758 161.748 28.6416V26.9644H159.836V24.7305ZM171.482 22.5552C171.638 22.5552 171.802 22.5674 171.973 22.5918C172.144 22.6113 172.271 22.6284 172.354 22.6431L172.097 25.3457C172.004 25.3213 171.885 25.3018 171.738 25.2871C171.592 25.2676 171.387 25.2578 171.123 25.2578C170.942 25.2578 170.75 25.2749 170.544 25.3091C170.339 25.3433 170.144 25.4165 169.958 25.5288C169.778 25.6362 169.629 25.8022 169.512 26.0269C169.395 26.2466 169.336 26.5444 169.336 26.9204V31H166.472V22.7017H168.604L169.05 24.0273H169.189C169.341 23.7539 169.534 23.5073 169.768 23.2876C170.007 23.063 170.273 22.8848 170.566 22.7529C170.864 22.6211 171.169 22.5552 171.482 22.5552ZM181.589 22.7017V31H179.429L179.07 29.9673H178.901C178.73 30.2456 178.513 30.4727 178.25 30.6484C177.991 30.8193 177.703 30.9438 177.385 31.022C177.068 31.105 176.738 31.1465 176.396 31.1465C175.854 31.1465 175.364 31.0415 174.924 30.8315C174.49 30.6216 174.143 30.292 173.884 29.8428C173.63 29.3936 173.503 28.8149 173.503 28.1069V22.7017H176.367V27.2354C176.367 27.7725 176.443 28.1826 176.594 28.4658C176.75 28.7441 177.004 28.8833 177.356 28.8833C177.717 28.8833 177.996 28.7856 178.191 28.5903C178.391 28.395 178.53 28.1069 178.608 27.7261C178.687 27.3452 178.726 26.8813 178.726 26.3345V22.7017H181.589ZM187.632 28.8833C187.891 28.8833 188.127 28.8564 188.342 28.8027C188.557 28.749 188.782 28.6807 189.016 28.5977V30.6851C188.704 30.8218 188.372 30.9316 188.02 31.0146C187.673 31.1025 187.229 31.1465 186.687 31.1465C186.15 31.1465 185.676 31.0635 185.266 30.8975C184.856 30.7266 184.536 30.4336 184.307 30.0186C184.082 29.5986 183.97 29.0151 183.97 28.2681V24.8477H182.966V23.6831L184.241 22.7822L184.98 21.0391H186.855V22.7017H188.892V24.8477H186.855V28.0776C186.855 28.3462 186.924 28.5488 187.061 28.6855C187.197 28.8174 187.388 28.8833 187.632 28.8833ZM199.153 26.8911L196.318 30.4141L194.231 29.3374L196.245 26.7886L194.231 24.2471L196.318 23.1558L199.153 26.6934V26.8911ZM194.934 26.8911L192.1 30.4141L190.034 29.3374L192.026 26.7886L190.034 24.2471L192.1 23.1558L194.934 26.6934V26.8911ZM200.332 29.7842C200.332 29.2666 200.483 28.9028 200.786 28.6929C201.094 28.4829 201.462 28.3779 201.892 28.3779C202.297 28.3779 202.649 28.4829 202.947 28.6929C203.245 28.9028 203.394 29.2666 203.394 29.7842C203.394 30.2773 203.245 30.6338 202.947 30.8535C202.649 31.0732 202.297 31.1831 201.892 31.1831C201.462 31.1831 201.094 31.0732 200.786 30.8535C200.483 30.6338 200.332 30.2773 200.332 29.7842ZM212.703 31H211.458V21.3979H208.066V20.292H216.094V21.3979H212.703V31ZM222.466 31L222.224 29.8574H222.166C221.765 30.3604 221.365 30.7021 220.964 30.8828C220.569 31.0586 220.073 31.1465 219.478 31.1465C218.682 31.1465 218.057 30.9414 217.603 30.5312C217.153 30.1211 216.929 29.5376 216.929 28.7808C216.929 27.1597 218.225 26.3101 220.818 26.2319L222.18 26.188V25.6899C222.18 25.0601 222.043 24.5962 221.77 24.2983C221.501 23.9956 221.069 23.8442 220.474 23.8442C219.805 23.8442 219.048 24.0493 218.203 24.4595L217.83 23.5293C218.225 23.3145 218.657 23.146 219.126 23.0239C219.6 22.9019 220.073 22.8408 220.547 22.8408C221.504 22.8408 222.212 23.0532 222.671 23.478C223.135 23.9028 223.367 24.584 223.367 25.5215V31H222.466ZM219.719 30.1431C220.476 30.1431 221.069 29.9355 221.499 29.5205C221.934 29.1055 222.151 28.5244 222.151 27.7773V27.0522L220.935 27.1035C219.968 27.1377 219.27 27.2891 218.84 27.5576C218.416 27.8213 218.203 28.2339 218.203 28.7954C218.203 29.2349 218.335 29.5693 218.599 29.7988C218.867 30.0283 219.241 30.1431 219.719 30.1431ZM230.559 22.9727H231.892L228.428 26.8472L232.178 31H230.757L227.095 26.9351V31H225.879V22.9727H227.095V26.8765L230.559 22.9727ZM244.08 24.9868C244.08 25.5093 243.928 25.9072 243.625 26.1807C243.328 26.4492 242.908 26.6299 242.366 26.7227V26.7886C243.049 26.8813 243.547 27.0815 243.86 27.3892C244.177 27.6968 244.336 28.1216 244.336 28.6636C244.336 29.4106 244.06 29.9868 243.508 30.3921C242.961 30.7974 242.161 31 241.106 31H237.568V22.9727H241.091C243.083 22.9727 244.08 23.644 244.08 24.9868ZM243.12 28.583C243.12 28.1484 242.954 27.8335 242.622 27.6382C242.295 27.438 241.75 27.3379 240.989 27.3379H238.784V29.9819H241.018C242.419 29.9819 243.12 29.5156 243.12 28.583ZM242.893 25.104C242.893 24.7134 242.742 24.4375 242.439 24.2764C242.141 24.1104 241.687 24.0273 241.077 24.0273H238.784V26.2905H240.842C241.594 26.2905 242.124 26.1978 242.432 26.0122C242.739 25.8267 242.893 25.5239 242.893 25.104ZM253.213 31.1465C252.051 31.1465 251.15 30.79 250.51 30.0771C249.875 29.3594 249.558 28.3462 249.558 27.0376C249.558 25.6948 249.88 24.6572 250.525 23.9248C251.174 23.1924 252.097 22.8262 253.293 22.8262C253.679 22.8262 254.065 22.8677 254.451 22.9507C254.836 23.0337 255.139 23.1313 255.359 23.2437L254.985 24.2764C254.717 24.1689 254.424 24.0811 254.106 24.0127C253.789 23.9395 253.508 23.9028 253.264 23.9028C251.633 23.9028 250.818 24.9429 250.818 27.0229C250.818 28.0093 251.016 28.7661 251.411 29.2935C251.812 29.8208 252.402 30.0845 253.184 30.0845C253.853 30.0845 254.539 29.9404 255.242 29.6523V30.729C254.705 31.0073 254.028 31.1465 253.213 31.1465ZM260.889 31.1465C260.366 31.1465 259.888 31.0513 259.453 30.8608C259.023 30.6655 258.662 30.3677 258.369 29.9673H258.281C258.34 30.436 258.369 30.8804 258.369 31.3003V34.6035H257.153V22.9727H258.142L258.311 24.0713H258.369C258.682 23.6318 259.045 23.3145 259.46 23.1191C259.875 22.9238 260.352 22.8262 260.889 22.8262C261.953 22.8262 262.773 23.1899 263.35 23.9175C263.931 24.645 264.221 25.6655 264.221 26.979C264.221 28.2974 263.926 29.3228 263.335 30.0552C262.749 30.7827 261.934 31.1465 260.889 31.1465ZM260.713 23.8589C259.893 23.8589 259.299 24.0859 258.933 24.54C258.567 24.9941 258.379 25.7168 258.369 26.708V26.979C258.369 28.1069 258.557 28.915 258.933 29.4033C259.309 29.8867 259.912 30.1284 260.742 30.1284C261.436 30.1284 261.978 29.8477 262.368 29.2861C262.764 28.7246 262.961 27.9507 262.961 26.9644C262.961 25.9634 262.764 25.1968 262.368 24.6646C261.978 24.1274 261.426 23.8589 260.713 23.8589ZM269.744 31.1465C268.557 31.1465 267.62 30.7852 266.931 30.0625C266.248 29.3398 265.906 28.3364 265.906 27.0522C265.906 25.7583 266.223 24.7305 266.858 23.9688C267.498 23.207 268.354 22.8262 269.429 22.8262C270.435 22.8262 271.23 23.1582 271.816 23.8223C272.402 24.4814 272.695 25.353 272.695 26.437V27.2061H267.166C267.19 28.1484 267.427 28.8638 267.876 29.3521C268.33 29.8403 268.967 30.0845 269.788 30.0845C270.652 30.0845 271.506 29.9038 272.351 29.5425V30.6265C271.921 30.812 271.514 30.9438 271.128 31.022C270.747 31.105 270.286 31.1465 269.744 31.1465ZM269.414 23.8442C268.77 23.8442 268.254 24.0542 267.869 24.4741C267.488 24.894 267.263 25.4751 267.195 26.2173H271.392C271.392 25.4507 271.221 24.8647 270.879 24.4595C270.537 24.0493 270.049 23.8442 269.414 23.8442ZM281.748 33.7759H280.569V31H274.958V33.7759H273.787V29.9526H274.417C275.071 29.064 275.583 28.0215 275.955 26.8252C276.326 25.6289 276.519 24.3447 276.533 22.9727H280.598V29.9526H281.748V33.7759ZM279.426 29.9526V23.9321H277.625C277.561 25.0161 277.351 26.1147 276.995 27.228C276.643 28.3364 276.204 29.2446 275.676 29.9526H279.426ZM284.575 22.9727V26.3345H289.072V22.9727H290.288V31H289.072V27.3818H284.575V31H283.359V22.9727H284.575ZM294.009 22.9727V28.063L293.958 29.396L293.936 29.8135L298.279 22.9727H299.795V31H298.66V26.0928L298.682 25.126L298.718 24.1738L294.382 31H292.866V22.9727H294.009ZM305.764 31.1465C304.578 31.1465 303.64 30.7852 302.952 30.0625C302.268 29.3398 301.926 28.3364 301.926 27.0522C301.926 25.7583 302.244 24.7305 302.878 23.9688C303.518 23.207 304.375 22.8262 305.449 22.8262C306.455 22.8262 307.251 23.1582 307.837 23.8223C308.423 24.4814 308.716 25.353 308.716 26.437V27.2061H303.186C303.21 28.1484 303.447 28.8638 303.896 29.3521C304.351 29.8403 304.988 30.0845 305.808 30.0845C306.672 30.0845 307.527 29.9038 308.372 29.5425V30.6265C307.942 30.812 307.534 30.9438 307.148 31.022C306.768 31.105 306.306 31.1465 305.764 31.1465ZM305.435 23.8442C304.79 23.8442 304.275 24.0542 303.889 24.4741C303.508 24.894 303.284 25.4751 303.215 26.2173H307.412C307.412 25.4507 307.241 24.8647 306.899 24.4595C306.558 24.0493 306.069 23.8442 305.435 23.8442ZM321.204 24.9868C321.204 25.5093 321.052 25.9072 320.75 26.1807C320.452 26.4492 320.032 26.6299 319.49 26.7227V26.7886C320.173 26.8813 320.671 27.0815 320.984 27.3892C321.301 27.6968 321.46 28.1216 321.46 28.6636C321.46 29.4106 321.184 29.9868 320.632 30.3921C320.085 30.7974 319.285 31 318.23 31H314.692V22.9727H318.215C320.208 22.9727 321.204 23.644 321.204 24.9868ZM320.244 28.583C320.244 28.1484 320.078 27.8335 319.746 27.6382C319.419 27.438 318.875 27.3379 318.113 27.3379H315.908V29.9819H318.142C319.543 29.9819 320.244 29.5156 320.244 28.583ZM320.017 25.104C320.017 24.7134 319.866 24.4375 319.563 24.2764C319.265 24.1104 318.811 24.0273 318.201 24.0273H315.908V26.2905H317.966C318.718 26.2905 319.248 26.1978 319.556 26.0122C319.863 25.8267 320.017 25.5239 320.017 25.104ZM326.624 31.1465C325.437 31.1465 324.5 30.7852 323.811 30.0625C323.127 29.3398 322.786 28.3364 322.786 27.0522C322.786 25.7583 323.103 24.7305 323.738 23.9688C324.377 23.207 325.234 22.8262 326.309 22.8262C327.314 22.8262 328.11 23.1582 328.696 23.8223C329.282 24.4814 329.575 25.353 329.575 26.437V27.2061H324.045C324.07 28.1484 324.307 28.8638 324.756 29.3521C325.21 29.8403 325.847 30.0845 326.667 30.0845C327.532 30.0845 328.386 29.9038 329.231 29.5425V30.6265C328.801 30.812 328.394 30.9438 328.008 31.022C327.627 31.105 327.166 31.1465 326.624 31.1465ZM326.294 23.8442C325.649 23.8442 325.134 24.0542 324.749 24.4741C324.368 24.894 324.143 25.4751 324.075 26.2173H328.271C328.271 25.4507 328.101 24.8647 327.759 24.4595C327.417 24.0493 326.929 23.8442 326.294 23.8442ZM336.335 22.9727H337.668L334.204 26.8472L337.954 31H336.533L332.871 26.9351V31H331.655V22.9727H332.871V26.8765L336.335 22.9727ZM344.385 31L344.143 29.8574H344.084C343.684 30.3604 343.284 30.7021 342.883 30.8828C342.488 31.0586 341.992 31.1465 341.396 31.1465C340.601 31.1465 339.976 30.9414 339.521 30.5312C339.072 30.1211 338.848 29.5376 338.848 28.7808C338.848 27.1597 340.144 26.3101 342.737 26.2319L344.099 26.188V25.6899C344.099 25.0601 343.962 24.5962 343.689 24.2983C343.42 23.9956 342.988 23.8442 342.393 23.8442C341.724 23.8442 340.967 24.0493 340.122 24.4595L339.749 23.5293C340.144 23.3145 340.576 23.146 341.045 23.0239C341.519 22.9019 341.992 22.8408 342.466 22.8408C343.423 22.8408 344.131 23.0532 344.59 23.478C345.054 23.9028 345.286 24.584 345.286 25.5215V31H344.385ZM341.638 30.1431C342.395 30.1431 342.988 29.9355 343.418 29.5205C343.853 29.1055 344.07 28.5244 344.07 27.7773V27.0522L342.854 27.1035C341.887 27.1377 341.189 27.2891 340.759 27.5576C340.334 27.8213 340.122 28.2339 340.122 28.7954C340.122 29.2349 340.254 29.5693 340.518 29.7988C340.786 30.0283 341.16 30.1431 341.638 30.1431ZM2.50488 42.9727V46.3345H7.00195V42.9727H8.21777V51H7.00195V47.3818H2.50488V51H1.28906V42.9727H2.50488ZM15.7324 51L15.4907 49.8574H15.4321C15.0317 50.3604 14.6313 50.7021 14.231 50.8828C13.8354 51.0586 13.3398 51.1465 12.7441 51.1465C11.9482 51.1465 11.3232 50.9414 10.8691 50.5312C10.4199 50.1211 10.1953 49.5376 10.1953 48.7808C10.1953 47.1597 11.4917 46.3101 14.0845 46.2319L15.4468 46.188V45.6899C15.4468 45.0601 15.3101 44.5962 15.0366 44.2983C14.7681 43.9956 14.3359 43.8442 13.7402 43.8442C13.0713 43.8442 12.3145 44.0493 11.4697 44.4595L11.0962 43.5293C11.4917 43.3145 11.9238 43.146 12.3926 43.0239C12.8662 42.9019 13.3398 42.8408 13.8135 42.8408C14.7705 42.8408 15.4785 43.0532 15.9375 43.478C16.4014 43.9028 16.6333 44.584 16.6333 45.5215V51H15.7324ZM12.9858 50.1431C13.7427 50.1431 14.3359 49.9355 14.7656 49.5205C15.2002 49.1055 15.4175 48.5244 15.4175 47.7773V47.0522L14.2017 47.1035C13.2349 47.1377 12.5366 47.2891 12.1069 47.5576C11.6821 47.8213 11.4697 48.2339 11.4697 48.7954C11.4697 49.2349 11.6016 49.5693 11.8652 49.7988C12.1338 50.0283 12.5073 50.1431 12.9858 50.1431ZM20.6763 46.3052C22.1948 46.3052 22.9541 45.8853 22.9541 45.0454C22.9541 44.2544 22.3389 43.8589 21.1084 43.8589C20.7324 43.8589 20.3906 43.8931 20.083 43.9614C19.7754 44.0298 19.3726 44.1665 18.8745 44.3716L18.4424 43.3828C19.2725 43.0117 20.1782 42.8262 21.1597 42.8262C22.0825 42.8262 22.8101 43.0166 23.3423 43.3975C23.8745 43.7734 24.1406 44.2886 24.1406 44.9429C24.1406 45.8413 23.6401 46.4297 22.6392 46.708V46.7666C23.2544 46.9473 23.7036 47.2061 23.9868 47.543C24.27 47.875 24.4116 48.2925 24.4116 48.7954C24.4116 49.5376 24.1113 50.1162 23.5107 50.5312C22.915 50.9414 22.0898 51.1465 21.0352 51.1465C19.8779 51.1465 18.9844 50.9731 18.3545 50.6265V49.5132C19.248 49.9331 20.1514 50.1431 21.0645 50.1431C21.7676 50.1431 22.2974 50.0234 22.6538 49.7842C23.0151 49.54 23.1958 49.1909 23.1958 48.7368C23.1958 47.8042 22.4365 47.3379 20.918 47.3379H19.8047V46.3052H20.6763ZM27.6123 46.2905H29.8022C30.8228 46.2905 31.5771 46.481 32.0654 46.8618C32.5586 47.2378 32.8052 47.8018 32.8052 48.5537C32.8052 49.3594 32.5439 49.9697 32.0215 50.3848C31.5039 50.7949 30.7397 51 29.729 51H26.3965V42.9727H27.6123V46.2905ZM35.3687 51H34.1528V42.9727H35.3687V51ZM27.6123 47.3379V49.9819H29.6704C30.9595 49.9819 31.604 49.5303 31.604 48.627C31.604 48.1777 31.4551 47.8506 31.1572 47.6455C30.8594 47.4404 30.3516 47.3379 29.6338 47.3379H27.6123ZM44.4653 44.9868C44.4653 45.5093 44.314 45.9072 44.0112 46.1807C43.7134 46.4492 43.2935 46.6299 42.7515 46.7227V46.7886C43.4351 46.8813 43.9331 47.0815 44.2456 47.3892C44.563 47.6968 44.7217 48.1216 44.7217 48.6636C44.7217 49.4106 44.4458 49.9868 43.894 50.3921C43.3472 50.7974 42.5464 51 41.4917 51H37.9541V42.9727H41.4771C43.4692 42.9727 44.4653 43.644 44.4653 44.9868ZM43.5059 48.583C43.5059 48.1484 43.3398 47.8335 43.0078 47.6382C42.6807 47.438 42.1362 47.3379 41.3745 47.3379H39.1699V49.9819H41.4038C42.8052 49.9819 43.5059 49.5156 43.5059 48.583ZM43.2788 45.104C43.2788 44.7134 43.1274 44.4375 42.8247 44.2764C42.5269 44.1104 42.0728 44.0273 41.4624 44.0273H39.1699V46.2905H41.228C41.98 46.2905 42.5098 46.1978 42.8174 46.0122C43.125 45.8267 43.2788 45.5239 43.2788 45.104ZM51.4307 51L51.189 49.8574H51.1304C50.73 50.3604 50.3296 50.7021 49.9292 50.8828C49.5337 51.0586 49.0381 51.1465 48.4424 51.1465C47.6465 51.1465 47.0215 50.9414 46.5674 50.5312C46.1182 50.1211 45.8936 49.5376 45.8936 48.7808C45.8936 47.1597 47.1899 46.3101 49.7827 46.2319L51.145 46.188V45.6899C51.145 45.0601 51.0083 44.5962 50.7349 44.2983C50.4663 43.9956 50.0342 43.8442 49.4385 43.8442C48.7695 43.8442 48.0127 44.0493 47.168 44.4595L46.7944 43.5293C47.1899 43.3145 47.6221 43.146 48.0908 43.0239C48.5645 42.9019 49.0381 42.8408 49.5117 42.8408C50.4688 42.8408 51.1768 43.0532 51.6357 43.478C52.0996 43.9028 52.3315 44.584 52.3315 45.5215V51H51.4307ZM48.6841 50.1431C49.4409 50.1431 50.0342 49.9355 50.4639 49.5205C50.8984 49.1055 51.1157 48.5244 51.1157 47.7773V47.0522L49.8999 47.1035C48.9331 47.1377 48.2349 47.2891 47.8052 47.5576C47.3804 47.8213 47.168 48.2339 47.168 48.7954C47.168 49.2349 47.2998 49.5693 47.5635 49.7988C47.832 50.0283 48.2056 50.1431 48.6841 50.1431ZM60.8276 51H59.5972V44.0127H57.1875C57.0557 45.751 56.8726 47.1304 56.6382 48.1509C56.4038 49.1714 56.0986 49.9185 55.7227 50.3921C55.3516 50.8657 54.8779 51.1025 54.3018 51.1025C54.0381 51.1025 53.8281 51.0732 53.6719 51.0146V50.1138C53.7793 50.1431 53.9014 50.1577 54.0381 50.1577C54.5996 50.1577 55.0464 49.5645 55.3784 48.3779C55.7104 47.1914 55.9619 45.3896 56.1328 42.9727H60.8276V51ZM64.5557 42.9727V48.063L64.5044 49.396L64.4824 49.8135L68.8257 42.9727H70.3418V51H69.2065V46.0928L69.2285 45.126L69.2651 44.1738L64.9292 51H63.4131V42.9727H64.5557ZM78.0322 51H76.8164V42.9727H83.5547V51H82.3242V44.0273H78.0322V51ZM89.8682 51.1465C89.3457 51.1465 88.8672 51.0513 88.4326 50.8608C88.0029 50.6655 87.6416 50.3677 87.3486 49.9673H87.2607C87.3193 50.436 87.3486 50.8804 87.3486 51.3003V54.6035H86.1328V42.9727H87.1216L87.29 44.0713H87.3486C87.6611 43.6318 88.0249 43.3145 88.4399 43.1191C88.855 42.9238 89.3311 42.8262 89.8682 42.8262C90.9326 42.8262 91.7529 43.1899 92.3291 43.9175C92.9102 44.645 93.2007 45.6655 93.2007 46.979C93.2007 48.2974 92.9053 49.3228 92.3145 50.0552C91.7285 50.7827 90.9131 51.1465 89.8682 51.1465ZM89.6924 43.8589C88.8721 43.8589 88.2788 44.0859 87.9126 44.54C87.5464 44.9941 87.3584 45.7168 87.3486 46.708V46.979C87.3486 48.1069 87.5366 48.915 87.9126 49.4033C88.2886 49.8867 88.8916 50.1284 89.7217 50.1284C90.415 50.1284 90.957 49.8477 91.3477 49.2861C91.7432 48.7246 91.9409 47.9507 91.9409 46.9644C91.9409 45.9634 91.7432 45.1968 91.3477 44.6646C90.957 44.1274 90.4053 43.8589 89.6924 43.8589ZM98.7231 51.1465C97.5366 51.1465 96.5991 50.7852 95.9106 50.0625C95.2271 49.3398 94.8853 48.3364 94.8853 47.0522C94.8853 45.7583 95.2026 44.7305 95.8374 43.9688C96.4771 43.207 97.334 42.8262 98.4082 42.8262C99.4141 42.8262 100.21 43.1582 100.796 43.8223C101.382 44.4814 101.675 45.353 101.675 46.437V47.2061H96.145C96.1694 48.1484 96.4062 48.8638 96.8555 49.3521C97.3096 49.8403 97.9468 50.0845 98.7671 50.0845C99.6313 50.0845 100.486 49.9038 101.331 49.5425V50.6265C100.901 50.812 100.493 50.9438 100.107 51.022C99.7266 51.105 99.2651 51.1465 98.7231 51.1465ZM98.3936 43.8442C97.749 43.8442 97.2339 44.0542 96.8481 44.4741C96.4673 44.894 96.2427 45.4751 96.1743 46.2173H100.371C100.371 45.4507 100.2 44.8647 99.8584 44.4595C99.5166 44.0493 99.0283 43.8442 98.3936 43.8442ZM110.728 53.7759H109.548V51H103.938V53.7759H102.766V49.9526H103.396C104.05 49.064 104.563 48.0215 104.934 46.8252C105.305 45.6289 105.498 44.3447 105.513 42.9727H109.578V49.9526H110.728V53.7759ZM108.406 49.9526V43.9321H106.604C106.541 45.0161 106.331 46.1147 105.974 47.228C105.623 48.3364 105.183 49.2446 104.656 49.9526H108.406ZM118.323 49.9526H121.882V42.9727H123.113V51H112.339V42.9727H113.555V49.9526H117.107V42.9727H118.323V49.9526ZM129.089 51.1465C127.903 51.1465 126.965 50.7852 126.277 50.0625C125.593 49.3398 125.251 48.3364 125.251 47.0522C125.251 45.7583 125.569 44.7305 126.204 43.9688C126.843 43.207 127.7 42.8262 128.774 42.8262C129.78 42.8262 130.576 43.1582 131.162 43.8223C131.748 44.4814 132.041 45.353 132.041 46.437V47.2061H126.511C126.536 48.1484 126.772 48.8638 127.222 49.3521C127.676 49.8403 128.313 50.0845 129.133 50.0845C129.998 50.0845 130.852 49.9038 131.697 49.5425V50.6265C131.267 50.812 130.859 50.9438 130.474 51.022C130.093 51.105 129.631 51.1465 129.089 51.1465ZM128.76 43.8442C128.115 43.8442 127.6 44.0542 127.214 44.4741C126.833 44.894 126.609 45.4751 126.541 46.2173H130.737C130.737 45.4507 130.566 44.8647 130.225 44.4595C129.883 44.0493 129.395 43.8442 128.76 43.8442ZM137.329 51.1465C136.167 51.1465 135.266 50.79 134.626 50.0771C133.992 49.3594 133.674 48.3462 133.674 47.0376C133.674 45.6948 133.997 44.6572 134.641 43.9248C135.291 43.1924 136.213 42.8262 137.41 42.8262C137.795 42.8262 138.181 42.8677 138.567 42.9507C138.953 43.0337 139.255 43.1313 139.475 43.2437L139.102 44.2764C138.833 44.1689 138.54 44.0811 138.223 44.0127C137.905 43.9395 137.625 43.9028 137.38 43.9028C135.75 43.9028 134.934 44.9429 134.934 47.0229C134.934 48.0093 135.132 48.7661 135.527 49.2935C135.928 49.8208 136.519 50.0845 137.3 50.0845C137.969 50.0845 138.655 49.9404 139.358 49.6523V50.729C138.821 51.0073 138.145 51.1465 137.329 51.1465ZM146.682 44.0127H144.075V51H142.859V44.0127H140.281V42.9727H146.682V44.0127ZM154.783 44.9868C154.783 45.5093 154.631 45.9072 154.329 46.1807C154.031 46.4492 153.611 46.6299 153.069 46.7227V46.7886C153.752 46.8813 154.25 47.0815 154.563 47.3892C154.88 47.6968 155.039 48.1216 155.039 48.6636C155.039 49.4106 154.763 49.9868 154.211 50.3921C153.665 50.7974 152.864 51 151.809 51H148.271V42.9727H151.794C153.787 42.9727 154.783 43.644 154.783 44.9868ZM153.823 48.583C153.823 48.1484 153.657 47.8335 153.325 47.6382C152.998 47.438 152.454 47.3379 151.692 47.3379H149.487V49.9819H151.721C153.123 49.9819 153.823 49.5156 153.823 48.583ZM153.596 45.104C153.596 44.7134 153.445 44.4375 153.142 44.2764C152.844 44.1104 152.39 44.0273 151.78 44.0273H149.487V46.2905H151.545C152.297 46.2905 152.827 46.1978 153.135 46.0122C153.442 45.8267 153.596 45.5239 153.596 45.104ZM155.537 42.9727H156.841L158.599 47.5503C158.984 48.5952 159.224 49.3496 159.316 49.8135H159.375C159.438 49.5645 159.57 49.1396 159.771 48.5391C159.976 47.9336 160.64 46.0781 161.763 42.9727H163.066L159.617 52.1133C159.275 53.0166 158.875 53.6562 158.416 54.0322C157.961 54.4131 157.402 54.6035 156.738 54.6035C156.367 54.6035 156.001 54.562 155.64 54.479V53.5049C155.908 53.5635 156.208 53.5928 156.541 53.5928C157.375 53.5928 157.971 53.124 158.328 52.1865L158.774 51.0439L155.537 42.9727ZM174.705 46.979C174.705 48.2925 174.39 49.3154 173.76 50.0479C173.135 50.7803 172.275 51.1465 171.182 51.1465C170.142 51.1465 169.316 50.8218 168.706 50.1724C168.096 49.5181 167.756 48.5879 167.688 47.3818H165.586V51H164.37V42.9727H165.586V46.3345H167.703C167.8 45.2212 168.157 44.3594 168.772 43.749C169.387 43.1338 170.2 42.8262 171.211 42.8262C172.285 42.8262 173.135 43.1997 173.76 43.9468C174.39 44.689 174.705 45.6997 174.705 46.979ZM168.948 46.979C168.948 48.0093 169.126 48.793 169.482 49.3301C169.839 49.8623 170.41 50.1284 171.196 50.1284C171.968 50.1284 172.534 49.8696 172.896 49.3521C173.262 48.8296 173.445 48.0386 173.445 46.979C173.445 45.9536 173.267 45.1772 172.91 44.6499C172.554 44.1226 171.982 43.8589 171.196 43.8589C170.41 43.8589 169.839 44.1226 169.482 44.6499C169.126 45.1772 168.948 45.9536 168.948 46.979ZM182.82 49.9526H186.379V42.9873H187.595V49.9526H188.745V53.7612H187.515V51H176.836V42.9873H178.052V49.9526H181.604V42.9873H182.82V49.9526ZM191.44 42.9727V48.063L191.389 49.396L191.367 49.8135L195.71 42.9727H197.227V51H196.091V46.0928L196.113 45.126L196.15 44.1738L191.814 51H190.298V42.9727H191.44ZM200.947 42.9727V48.063L200.896 49.396L200.874 49.8135L205.217 42.9727H206.733V51H205.598V46.0928L205.62 45.126L205.657 44.1738L201.321 51H199.805V42.9727H200.947ZM203.24 41.9106C202.336 41.9106 201.677 41.7373 201.262 41.3906C200.847 41.0391 200.615 40.4629 200.566 39.6621H201.709C201.753 40.1699 201.885 40.5239 202.104 40.7241C202.329 40.9243 202.717 41.0244 203.269 41.0244C203.772 41.0244 204.143 40.917 204.382 40.7021C204.626 40.4873 204.775 40.1406 204.829 39.6621H205.979C205.92 40.4336 205.674 41.0024 205.239 41.3687C204.805 41.73 204.138 41.9106 203.24 41.9106ZM214.424 51H213.208V42.9727H219.946V51H218.716V44.0273H214.424V51ZM223.667 42.9727V48.063L223.616 49.396L223.594 49.8135L227.937 42.9727H229.453V51H228.318V46.0928L228.34 45.126L228.376 44.1738L224.041 51H222.524V42.9727H223.667ZM238.542 44.9868C238.542 45.5093 238.391 45.9072 238.088 46.1807C237.791 46.4492 237.371 46.6299 236.829 46.7227V46.7886C237.512 46.8813 238.01 47.0815 238.323 47.3892C238.64 47.6968 238.799 48.1216 238.799 48.6636C238.799 49.4106 238.523 49.9868 237.971 50.3921C237.424 50.7974 236.624 51 235.569 51H232.031V42.9727H235.554C237.546 42.9727 238.542 43.644 238.542 44.9868ZM237.583 48.583C237.583 48.1484 237.417 47.8335 237.085 47.6382C236.758 47.438 236.213 47.3379 235.452 47.3379H233.247V49.9819H235.481C236.882 49.9819 237.583 49.5156 237.583 48.583ZM237.356 45.104C237.356 44.7134 237.205 44.4375 236.902 44.2764C236.604 44.1104 236.15 44.0273 235.54 44.0273H233.247V46.2905H235.305C236.057 46.2905 236.587 46.1978 236.895 46.0122C237.202 45.8267 237.356 45.5239 237.356 45.104ZM239.297 42.9727H240.601L242.358 47.5503C242.744 48.5952 242.983 49.3496 243.076 49.8135H243.135C243.198 49.5645 243.33 49.1396 243.53 48.5391C243.735 47.9336 244.399 46.0781 245.522 42.9727H246.826L243.376 52.1133C243.035 53.0166 242.634 53.6562 242.175 54.0322C241.721 54.4131 241.162 54.6035 240.498 54.6035C240.127 54.6035 239.761 54.562 239.399 54.479V53.5049C239.668 53.5635 239.968 53.5928 240.3 53.5928C241.135 53.5928 241.731 53.124 242.087 52.1865L242.534 51.0439L239.297 42.9727ZM253.242 42.9727V46.3345H257.739V42.9727H258.955V51H257.739V47.3818H253.242V51H252.026V42.9727H253.242ZM266.47 51L266.228 49.8574H266.169C265.769 50.3604 265.369 50.7021 264.968 50.8828C264.573 51.0586 264.077 51.1465 263.481 51.1465C262.686 51.1465 262.061 50.9414 261.606 50.5312C261.157 50.1211 260.933 49.5376 260.933 48.7808C260.933 47.1597 262.229 46.3101 264.822 46.2319L266.184 46.188V45.6899C266.184 45.0601 266.047 44.5962 265.774 44.2983C265.505 43.9956 265.073 43.8442 264.478 43.8442C263.809 43.8442 263.052 44.0493 262.207 44.4595L261.833 43.5293C262.229 43.3145 262.661 43.146 263.13 43.0239C263.604 42.9019 264.077 42.8408 264.551 42.8408C265.508 42.8408 266.216 43.0532 266.675 43.478C267.139 43.9028 267.371 44.584 267.371 45.5215V51H266.47ZM263.723 50.1431C264.48 50.1431 265.073 49.9355 265.503 49.5205C265.938 49.1055 266.155 48.5244 266.155 47.7773V47.0522L264.939 47.1035C263.972 47.1377 263.274 47.2891 262.844 47.5576C262.419 47.8213 262.207 48.2339 262.207 48.7954C262.207 49.2349 262.339 49.5693 262.603 49.7988C262.871 50.0283 263.245 50.1431 263.723 50.1431ZM271.099 51H269.883V42.9727H276.621V51H275.391V44.0273H271.099V51ZM280.342 42.9727V48.063L280.291 49.396L280.269 49.8135L284.612 42.9727H286.128V51H284.993V46.0928L285.015 45.126L285.051 44.1738L280.715 51H279.199V42.9727H280.342ZM294.119 44.0127H291.511V51H290.295V44.0127H287.717V42.9727H294.119V44.0127ZM302.637 46.979C302.637 48.2876 302.307 49.3105 301.648 50.0479C300.989 50.7803 300.078 51.1465 298.916 51.1465C298.198 51.1465 297.561 50.978 297.004 50.6411C296.448 50.3042 296.018 49.8208 295.715 49.1909C295.413 48.561 295.261 47.8237 295.261 46.979C295.261 45.6704 295.588 44.6523 296.243 43.9248C296.897 43.1924 297.805 42.8262 298.967 42.8262C300.09 42.8262 300.981 43.1997 301.641 43.9468C302.305 44.6938 302.637 45.7046 302.637 46.979ZM296.521 46.979C296.521 48.0044 296.726 48.7856 297.136 49.3228C297.546 49.8599 298.149 50.1284 298.945 50.1284C299.741 50.1284 300.344 49.8623 300.754 49.3301C301.169 48.793 301.377 48.0093 301.377 46.979C301.377 45.9585 301.169 45.1846 300.754 44.6572C300.344 44.125 299.736 43.8589 298.931 43.8589C298.135 43.8589 297.534 44.1201 297.129 44.6426C296.724 45.165 296.521 45.9438 296.521 46.979ZM309.456 42.9727H310.789L307.324 46.8472L311.074 51H309.653L305.991 46.9351V51H304.775V42.9727H305.991V46.8765L309.456 42.9727ZM317.681 42.9727V46.3345H322.178V42.9727H323.394V51H322.178V47.3818H317.681V51H316.465V42.9727H317.681ZM330.908 51L330.667 49.8574H330.608C330.208 50.3604 329.807 50.7021 329.407 50.8828C329.011 51.0586 328.516 51.1465 327.92 51.1465C327.124 51.1465 326.499 50.9414 326.045 50.5312C325.596 50.1211 325.371 49.5376 325.371 48.7808C325.371 47.1597 326.667 46.3101 329.26 46.2319L330.623 46.188V45.6899C330.623 45.0601 330.486 44.5962 330.212 44.2983C329.944 43.9956 329.512 43.8442 328.916 43.8442C328.247 43.8442 327.49 44.0493 326.646 44.4595L326.272 43.5293C326.667 43.3145 327.1 43.146 327.568 43.0239C328.042 42.9019 328.516 42.8408 328.989 42.8408C329.946 42.8408 330.654 43.0532 331.113 43.478C331.577 43.9028 331.809 44.584 331.809 45.5215V51H330.908ZM328.162 50.1431C328.918 50.1431 329.512 49.9355 329.941 49.5205C330.376 49.1055 330.593 48.5244 330.593 47.7773V47.0522L329.377 47.1035C328.411 47.1377 327.712 47.2891 327.283 47.5576C326.858 47.8213 326.646 48.2339 326.646 48.7954C326.646 49.2349 326.777 49.5693 327.041 49.7988C327.31 50.0283 327.683 50.1431 328.162 50.1431ZM8.21777 66.979C8.21777 68.2876 7.88818 69.3105 7.229 70.0479C6.56982 70.7803 5.65918 71.1465 4.49707 71.1465C3.7793 71.1465 3.14209 70.978 2.58545 70.6411C2.02881 70.3042 1.59912 69.8208 1.29639 69.1909C0.993652 68.561 0.842285 67.8237 0.842285 66.979C0.842285 65.6704 1.16943 64.6523 1.82373 63.9248C2.47803 63.1924 3.38623 62.8262 4.54834 62.8262C5.67139 62.8262 6.5625 63.1997 7.22168 63.9468C7.88574 64.6938 8.21777 65.7046 8.21777 66.979ZM2.10205 66.979C2.10205 68.0044 2.30713 68.7856 2.71729 69.3228C3.12744 69.8599 3.73047 70.1284 4.52637 70.1284C5.32227 70.1284 5.92529 69.8623 6.33545 69.3301C6.75049 68.793 6.95801 68.0093 6.95801 66.979C6.95801 65.9585 6.75049 65.1846 6.33545 64.6572C5.92529 64.125 5.31738 63.8589 4.51172 63.8589C3.71582 63.8589 3.11523 64.1201 2.70996 64.6426C2.30469 65.165 2.10205 65.9438 2.10205 66.979ZM13.5645 71.1465C12.4023 71.1465 11.5015 70.79 10.8618 70.0771C10.2271 69.3594 9.90967 68.3462 9.90967 67.0376C9.90967 65.6948 10.2319 64.6572 10.8765 63.9248C11.5259 63.1924 12.4487 62.8262 13.645 62.8262C14.0308 62.8262 14.4165 62.8677 14.8022 62.9507C15.188 63.0337 15.4907 63.1313 15.7104 63.2437L15.3369 64.2764C15.0684 64.1689 14.7754 64.0811 14.458 64.0127C14.1406 63.9395 13.8599 63.9028 13.6157 63.9028C11.9849 63.9028 11.1694 64.9429 11.1694 67.0229C11.1694 68.0093 11.3672 68.7661 11.7627 69.2935C12.1631 69.8208 12.7539 70.0845 13.5352 70.0845C14.2041 70.0845 14.8901 69.9404 15.5933 69.6523V70.729C15.0562 71.0073 14.3799 71.1465 13.5645 71.1465ZM18.7207 62.9727V66.3345H23.2178V62.9727H24.4336V71H23.2178V67.3818H18.7207V71H17.5049V62.9727H18.7207ZM33.9404 66.979C33.9404 68.2876 33.6108 69.3105 32.9517 70.0479C32.2925 70.7803 31.3818 71.1465 30.2197 71.1465C29.502 71.1465 28.8647 70.978 28.3081 70.6411C27.7515 70.3042 27.3218 69.8208 27.019 69.1909C26.7163 68.561 26.5649 67.8237 26.5649 66.979C26.5649 65.6704 26.8921 64.6523 27.5464 63.9248C28.2007 63.1924 29.1089 62.8262 30.271 62.8262C31.394 62.8262 32.2852 63.1997 32.9443 63.9468C33.6084 64.6938 33.9404 65.7046 33.9404 66.979ZM27.8247 66.979C27.8247 68.0044 28.0298 68.7856 28.4399 69.3228C28.8501 69.8599 29.4531 70.1284 30.249 70.1284C31.0449 70.1284 31.6479 69.8623 32.0581 69.3301C32.4731 68.793 32.6807 68.0093 32.6807 66.979C32.6807 65.9585 32.4731 65.1846 32.0581 64.6572C31.6479 64.125 31.04 63.8589 30.2344 63.8589C29.4385 63.8589 28.8379 64.1201 28.4326 64.6426C28.0273 65.165 27.8247 65.9438 27.8247 66.979ZM42.5903 64.9868C42.5903 65.5093 42.439 65.9072 42.1362 66.1807C41.8384 66.4492 41.4185 66.6299 40.8765 66.7227V66.7886C41.5601 66.8813 42.0581 67.0815 42.3706 67.3892C42.688 67.6968 42.8467 68.1216 42.8467 68.6636C42.8467 69.4106 42.5708 69.9868 42.019 70.3921C41.4722 70.7974 40.6714 71 39.6167 71H36.0791V62.9727H39.6021C41.5942 62.9727 42.5903 63.644 42.5903 64.9868ZM41.6309 68.583C41.6309 68.1484 41.4648 67.8335 41.1328 67.6382C40.8057 67.438 40.2612 67.3379 39.4995 67.3379H37.2949V69.9819H39.5288C40.9302 69.9819 41.6309 69.5156 41.6309 68.583ZM41.4038 65.104C41.4038 64.7134 41.2524 64.4375 40.9497 64.2764C40.6519 64.1104 40.1978 64.0273 39.5874 64.0273H37.2949V66.2905H39.353C40.105 66.2905 40.6348 66.1978 40.9424 66.0122C41.25 65.8267 41.4038 65.5239 41.4038 65.104ZM48.0103 71.1465C46.8237 71.1465 45.8862 70.7852 45.1978 70.0625C44.5142 69.3398 44.1724 68.3364 44.1724 67.0522C44.1724 65.7583 44.4897 64.7305 45.1245 63.9688C45.7642 63.207 46.6211 62.8262 47.6953 62.8262C48.7012 62.8262 49.4971 63.1582 50.083 63.8223C50.6689 64.4814 50.9619 65.353 50.9619 66.437V67.2061H45.4321C45.4565 68.1484 45.6934 68.8638 46.1426 69.3521C46.5967 69.8403 47.2339 70.0845 48.0542 70.0845C48.9185 70.0845 49.7729 69.9038 50.6177 69.5425V70.6265C50.188 70.812 49.7803 70.9438 49.3945 71.022C49.0137 71.105 48.5522 71.1465 48.0103 71.1465ZM47.6807 63.8442C47.0361 63.8442 46.521 64.0542 46.1353 64.4741C45.7544 64.894 45.5298 65.4751 45.4614 66.2173H49.6582C49.6582 65.4507 49.4873 64.8647 49.1455 64.4595C48.8037 64.0493 48.3154 63.8442 47.6807 63.8442ZM58.1543 71H56.9385V62.9727H63.6768V71H62.4463V64.0273H58.1543V71ZM73.1836 66.979C73.1836 68.2876 72.854 69.3105 72.1948 70.0479C71.5356 70.7803 70.625 71.1465 69.4629 71.1465C68.7451 71.1465 68.1079 70.978 67.5513 70.6411C66.9946 70.3042 66.5649 69.8208 66.2622 69.1909C65.9595 68.561 65.8081 67.8237 65.8081 66.979C65.8081 65.6704 66.1353 64.6523 66.7896 63.9248C67.4438 63.1924 68.3521 62.8262 69.5142 62.8262C70.6372 62.8262 71.5283 63.1997 72.1875 63.9468C72.8516 64.6938 73.1836 65.7046 73.1836 66.979ZM67.0679 66.979C67.0679 68.0044 67.2729 68.7856 67.6831 69.3228C68.0933 69.8599 68.6963 70.1284 69.4922 70.1284C70.2881 70.1284 70.8911 69.8623 71.3013 69.3301C71.7163 68.793 71.9238 68.0093 71.9238 66.979C71.9238 65.9585 71.7163 65.1846 71.3013 64.6572C70.8911 64.125 70.2832 63.8589 69.4775 63.8589C68.6816 63.8589 68.0811 64.1201 67.6758 64.6426C67.2705 65.165 67.0679 65.9438 67.0679 66.979ZM81.3062 71H80.0757V64.0127H77.666C77.5342 65.751 77.3511 67.1304 77.1167 68.1509C76.8823 69.1714 76.5771 69.9185 76.2012 70.3921C75.8301 70.8657 75.3564 71.1025 74.7803 71.1025C74.5166 71.1025 74.3066 71.0732 74.1504 71.0146V70.1138C74.2578 70.1431 74.3799 70.1577 74.5166 70.1577C75.0781 70.1577 75.5249 69.5645 75.8569 68.3779C76.189 67.1914 76.4404 65.3896 76.6113 62.9727H81.3062V71ZM85.1074 66.2905H87.2974C88.3179 66.2905 89.0723 66.481 89.5605 66.8618C90.0537 67.2378 90.3003 67.8018 90.3003 68.5537C90.3003 69.3594 90.0391 69.9697 89.5166 70.3848C88.999 70.7949 88.2349 71 87.2241 71H83.8916V62.9727H85.1074V66.2905ZM92.8638 71H91.6479V62.9727H92.8638V71ZM85.1074 67.3379V69.9819H87.1655C88.4546 69.9819 89.0991 69.5303 89.0991 68.627C89.0991 68.1777 88.9502 67.8506 88.6523 67.6455C88.3545 67.4404 87.8467 67.3379 87.1289 67.3379H85.1074ZM96.665 62.9727V66.3345H101.162V62.9727H102.378V71H101.162V67.3818H96.665V71H95.4492V62.9727H96.665ZM106.099 62.9727V68.063L106.047 69.396L106.025 69.8135L110.369 62.9727H111.885V71H110.75V66.0928L110.771 65.126L110.808 64.1738L106.472 71H104.956V62.9727H106.099ZM115.737 69.2568L115.847 69.4253C115.72 69.9136 115.537 70.48 115.298 71.1245C115.059 71.7739 114.81 72.377 114.551 72.9336H113.635C113.767 72.4258 113.911 71.7983 114.067 71.0513C114.229 70.3042 114.341 69.7061 114.404 69.2568H115.737ZM127.449 64.0127H124.841V71H123.625V64.0127H121.047V62.9727H127.449V64.0127ZM130.254 66.2905H132.444C133.464 66.2905 134.219 66.481 134.707 66.8618C135.2 67.2378 135.447 67.8018 135.447 68.5537C135.447 69.3594 135.186 69.9697 134.663 70.3848C134.146 70.7949 133.381 71 132.371 71H129.038V62.9727H130.254V66.2905ZM138.01 71H136.794V62.9727H138.01V71ZM130.254 67.3379V69.9819H132.312C133.601 69.9819 134.246 69.5303 134.246 68.627C134.246 68.1777 134.097 67.8506 133.799 67.6455C133.501 67.4404 132.993 67.3379 132.275 67.3379H130.254ZM143.804 71.1465C142.642 71.1465 141.741 70.79 141.101 70.0771C140.466 69.3594 140.149 68.3462 140.149 67.0376C140.149 65.6948 140.471 64.6572 141.116 63.9248C141.765 63.1924 142.688 62.8262 143.884 62.8262C144.27 62.8262 144.656 62.8677 145.042 62.9507C145.427 63.0337 145.73 63.1313 145.95 63.2437L145.576 64.2764C145.308 64.1689 145.015 64.0811 144.697 64.0127C144.38 63.9395 144.099 63.9028 143.855 63.9028C142.224 63.9028 141.409 64.9429 141.409 67.0229C141.409 68.0093 141.606 68.7661 142.002 69.2935C142.402 69.8208 142.993 70.0845 143.774 70.0845C144.443 70.0845 145.129 69.9404 145.833 69.6523V70.729C145.295 71.0073 144.619 71.1465 143.804 71.1465ZM148.147 71H146.726L149.033 67.6089C148.413 67.4722 147.937 67.2085 147.605 66.8179C147.278 66.4224 147.114 65.9268 147.114 65.3311C147.114 64.5986 147.361 64.0225 147.854 63.6025C148.347 63.1826 149.036 62.9727 149.919 62.9727H153.494V71H152.278V67.792H150.249L148.147 71ZM148.301 65.3457C148.301 66.2734 148.975 66.7373 150.322 66.7373H152.278V64.0273H150.073C148.892 64.0273 148.301 64.4668 148.301 65.3457ZM157.148 62.9727V65.9023C157.148 66.8398 157.683 67.3086 158.752 67.3086C159.197 67.3086 159.622 67.2402 160.027 67.1035C160.432 66.9668 160.891 66.7349 161.404 66.4077V62.9727H162.62V71H161.404V67.3672C160.891 67.7188 160.415 67.9678 159.976 68.1143C159.541 68.2559 159.048 68.3267 158.496 68.3267C157.695 68.3267 157.068 68.1167 156.614 67.6968C156.16 67.2769 155.933 66.708 155.933 65.9902V62.9727H157.148ZM168.596 71.1465C167.41 71.1465 166.472 70.7852 165.784 70.0625C165.1 69.3398 164.758 68.3364 164.758 67.0522C164.758 65.7583 165.076 64.7305 165.71 63.9688C166.35 63.207 167.207 62.8262 168.281 62.8262C169.287 62.8262 170.083 63.1582 170.669 63.8223C171.255 64.4814 171.548 65.353 171.548 66.437V67.2061H166.018C166.042 68.1484 166.279 68.8638 166.729 69.3521C167.183 69.8403 167.82 70.0845 168.64 70.0845C169.504 70.0845 170.359 69.9038 171.204 69.5425V70.6265C170.774 70.812 170.366 70.9438 169.98 71.022C169.6 71.105 169.138 71.1465 168.596 71.1465ZM168.267 63.8442C167.622 63.8442 167.107 64.0542 166.721 64.4741C166.34 64.894 166.116 65.4751 166.047 66.2173H170.244C170.244 65.4507 170.073 64.8647 169.731 64.4595C169.39 64.0493 168.901 63.8442 168.267 63.8442ZM179.612 71H178.381V64.0127H175.972C175.84 65.751 175.657 67.1304 175.422 68.1509C175.188 69.1714 174.883 69.9185 174.507 70.3921C174.136 70.8657 173.662 71.1025 173.086 71.1025C172.822 71.1025 172.612 71.0732 172.456 71.0146V70.1138C172.563 70.1431 172.686 70.1577 172.822 70.1577C173.384 70.1577 173.831 69.5645 174.163 68.3779C174.495 67.1914 174.746 65.3896 174.917 62.9727H179.612V71ZM183.34 62.9727V68.063L183.289 69.396L183.267 69.8135L187.61 62.9727H189.126V71H187.991V66.0928L188.013 65.126L188.049 64.1738L183.713 71H182.197V62.9727H183.34ZM194.912 71.1465C193.75 71.1465 192.849 70.79 192.209 70.0771C191.575 69.3594 191.257 68.3462 191.257 67.0376C191.257 65.6948 191.58 64.6572 192.224 63.9248C192.874 63.1924 193.796 62.8262 194.993 62.8262C195.378 62.8262 195.764 62.8677 196.15 62.9507C196.536 63.0337 196.838 63.1313 197.058 63.2437L196.685 64.2764C196.416 64.1689 196.123 64.0811 195.806 64.0127C195.488 63.9395 195.208 63.9028 194.963 63.9028C193.333 63.9028 192.517 64.9429 192.517 67.0229C192.517 68.0093 192.715 68.7661 193.11 69.2935C193.511 69.8208 194.102 70.0845 194.883 70.0845C195.552 70.0845 196.238 69.9404 196.941 69.6523V70.729C196.404 71.0073 195.728 71.1465 194.912 71.1465ZM204.265 64.0127H201.658V71H200.442V64.0127H197.864V62.9727H204.265V64.0127ZM207.07 62.9727V66.3345H211.567V62.9727H212.783V71H211.567V67.3818H207.07V71H205.854V62.9727H207.07ZM216.504 62.9727V68.063L216.453 69.396L216.431 69.8135L220.774 62.9727H222.29V71H221.155V66.0928L221.177 65.126L221.213 64.1738L216.877 71H215.361V62.9727H216.504ZM229.548 62.9727H230.881L227.417 66.8472L231.167 71H229.746L226.084 66.9351V71H224.868V62.9727H226.084V66.8765L229.548 62.9727ZM237.598 71L237.356 69.8574H237.297C236.897 70.3604 236.497 70.7021 236.096 70.8828C235.701 71.0586 235.205 71.1465 234.609 71.1465C233.813 71.1465 233.188 70.9414 232.734 70.5312C232.285 70.1211 232.061 69.5376 232.061 68.7808C232.061 67.1597 233.357 66.3101 235.95 66.2319L237.312 66.188V65.6899C237.312 65.0601 237.175 64.5962 236.902 64.2983C236.633 63.9956 236.201 63.8442 235.605 63.8442C234.937 63.8442 234.18 64.0493 233.335 64.4595L232.961 63.5293C233.357 63.3145 233.789 63.146 234.258 63.0239C234.731 62.9019 235.205 62.8408 235.679 62.8408C236.636 62.8408 237.344 63.0532 237.803 63.478C238.267 63.9028 238.499 64.584 238.499 65.5215V71H237.598ZM234.851 70.1431C235.608 70.1431 236.201 69.9355 236.631 69.5205C237.065 69.1055 237.283 68.5244 237.283 67.7773V67.0522L236.067 67.1035C235.1 67.1377 234.402 67.2891 233.972 67.5576C233.547 67.8213 233.335 68.2339 233.335 68.7954C233.335 69.2349 233.467 69.5693 233.73 69.7988C233.999 70.0283 234.373 70.1431 234.851 70.1431ZM242.285 69.2568L242.395 69.4253C242.268 69.9136 242.085 70.48 241.846 71.1245C241.606 71.7739 241.357 72.377 241.099 72.9336H240.183C240.315 72.4258 240.459 71.7983 240.615 71.0513C240.776 70.3042 240.889 69.7061 240.952 69.2568H242.285ZM255.095 64.9868C255.095 65.5093 254.944 65.9072 254.641 66.1807C254.343 66.4492 253.923 66.6299 253.381 66.7227V66.7886C254.065 66.8813 254.563 67.0815 254.875 67.3892C255.193 67.6968 255.352 68.1216 255.352 68.6636C255.352 69.4106 255.076 69.9868 254.524 70.3921C253.977 70.7974 253.176 71 252.122 71H248.584V62.9727H252.107C254.099 62.9727 255.095 63.644 255.095 64.9868ZM254.136 68.583C254.136 68.1484 253.97 67.8335 253.638 67.6382C253.311 67.438 252.766 67.3379 252.004 67.3379H249.8V69.9819H252.034C253.435 69.9819 254.136 69.5156 254.136 68.583ZM253.909 65.104C253.909 64.7134 253.757 64.4375 253.455 64.2764C253.157 64.1104 252.703 64.0273 252.092 64.0273H249.8V66.2905H251.858C252.61 66.2905 253.14 66.1978 253.447 66.0122C253.755 65.8267 253.909 65.5239 253.909 65.104ZM260.515 71.1465C259.329 71.1465 258.391 70.7852 257.703 70.0625C257.019 69.3398 256.677 68.3364 256.677 67.0522C256.677 65.7583 256.995 64.7305 257.629 63.9688C258.269 63.207 259.126 62.8262 260.2 62.8262C261.206 62.8262 262.002 63.1582 262.588 63.8223C263.174 64.4814 263.467 65.353 263.467 66.437V67.2061H257.937C257.961 68.1484 258.198 68.8638 258.647 69.3521C259.102 69.8403 259.739 70.0845 260.559 70.0845C261.423 70.0845 262.278 69.9038 263.123 69.5425V70.6265C262.693 70.812 262.285 70.9438 261.899 71.022C261.519 71.105 261.057 71.1465 260.515 71.1465ZM260.186 63.8442C259.541 63.8442 259.026 64.0542 258.64 64.4741C258.259 64.894 258.035 65.4751 257.966 66.2173H262.163C262.163 65.4507 261.992 64.8647 261.65 64.4595C261.309 64.0493 260.82 63.8442 260.186 63.8442ZM269.282 71.1465C268.76 71.1465 268.281 71.0513 267.847 70.8608C267.417 70.6655 267.056 70.3677 266.763 69.9673H266.675C266.733 70.436 266.763 70.8804 266.763 71.3003V74.6035H265.547V62.9727H266.536L266.704 64.0713H266.763C267.075 63.6318 267.439 63.3145 267.854 63.1191C268.269 62.9238 268.745 62.8262 269.282 62.8262C270.347 62.8262 271.167 63.1899 271.743 63.9175C272.324 64.645 272.615 65.6655 272.615 66.979C272.615 68.2974 272.319 69.3228 271.729 70.0552C271.143 70.7827 270.327 71.1465 269.282 71.1465ZM269.106 63.8589C268.286 63.8589 267.693 64.0859 267.327 64.54C266.96 64.9941 266.772 65.7168 266.763 66.708V66.979C266.763 68.1069 266.951 68.915 267.327 69.4033C267.703 69.8867 268.306 70.1284 269.136 70.1284C269.829 70.1284 270.371 69.8477 270.762 69.2861C271.157 68.7246 271.355 67.9507 271.355 66.9644C271.355 65.9634 271.157 65.1968 270.762 64.6646C270.371 64.1274 269.819 63.8589 269.106 63.8589ZM278.137 71.1465C276.951 71.1465 276.013 70.7852 275.325 70.0625C274.641 69.3398 274.299 68.3364 274.299 67.0522C274.299 65.7583 274.617 64.7305 275.251 63.9688C275.891 63.207 276.748 62.8262 277.822 62.8262C278.828 62.8262 279.624 63.1582 280.21 63.8223C280.796 64.4814 281.089 65.353 281.089 66.437V67.2061H275.559C275.583 68.1484 275.82 68.8638 276.27 69.3521C276.724 69.8403 277.361 70.0845 278.181 70.0845C279.045 70.0845 279.9 69.9038 280.745 69.5425V70.6265C280.315 70.812 279.907 70.9438 279.521 71.022C279.141 71.105 278.679 71.1465 278.137 71.1465ZM277.808 63.8442C277.163 63.8442 276.648 64.0542 276.262 64.4741C275.881 64.894 275.657 65.4751 275.588 66.2173H279.785C279.785 65.4507 279.614 64.8647 279.272 64.4595C278.931 64.0493 278.442 63.8442 277.808 63.8442ZM286.377 71.1465C285.215 71.1465 284.314 70.79 283.674 70.0771C283.04 69.3594 282.722 68.3462 282.722 67.0376C282.722 65.6948 283.044 64.6572 283.689 63.9248C284.338 63.1924 285.261 62.8262 286.458 62.8262C286.843 62.8262 287.229 62.8677 287.615 62.9507C288 63.0337 288.303 63.1313 288.523 63.2437L288.149 64.2764C287.881 64.1689 287.588 64.0811 287.271 64.0127C286.953 63.9395 286.672 63.9028 286.428 63.9028C284.797 63.9028 283.982 64.9429 283.982 67.0229C283.982 68.0093 284.18 68.7661 284.575 69.2935C284.976 69.8208 285.566 70.0845 286.348 70.0845C287.017 70.0845 287.703 69.9404 288.406 69.6523V70.729C287.869 71.0073 287.192 71.1465 286.377 71.1465ZM294.998 62.9727H296.331L292.866 66.8472L296.616 71H295.195L291.533 66.9351V71H290.317V62.9727H291.533V66.8765L294.998 62.9727ZM303.047 71L302.805 69.8574H302.747C302.346 70.3604 301.946 70.7021 301.545 70.8828C301.15 71.0586 300.654 71.1465 300.059 71.1465C299.263 71.1465 298.638 70.9414 298.184 70.5312C297.734 70.1211 297.51 69.5376 297.51 68.7808C297.51 67.1597 298.806 66.3101 301.399 66.2319L302.761 66.188V65.6899C302.761 65.0601 302.625 64.5962 302.351 64.2983C302.083 63.9956 301.65 63.8442 301.055 63.8442C300.386 63.8442 299.629 64.0493 298.784 64.4595L298.411 63.5293C298.806 63.3145 299.238 63.146 299.707 63.0239C300.181 62.9019 300.654 62.8408 301.128 62.8408C302.085 62.8408 302.793 63.0532 303.252 63.478C303.716 63.9028 303.948 64.584 303.948 65.5215V71H303.047ZM300.3 70.1431C301.057 70.1431 301.65 69.9355 302.08 69.5205C302.515 69.1055 302.732 68.5244 302.732 67.7773V67.0522L301.516 67.1035C300.549 67.1377 299.851 67.2891 299.421 67.5576C298.997 67.8213 298.784 68.2339 298.784 68.7954C298.784 69.2349 298.916 69.5693 299.18 69.7988C299.448 70.0283 299.822 70.1431 300.3 70.1431ZM307.734 69.2568L307.844 69.4253C307.717 69.9136 307.534 70.48 307.295 71.1245C307.056 71.7739 306.807 72.377 306.548 72.9336H305.632C305.764 72.4258 305.908 71.7983 306.064 71.0513C306.226 70.3042 306.338 69.7061 306.401 69.2568H307.734ZM2.43164 82.9727V88.063L2.38037 89.396L2.3584 89.8135L6.70166 82.9727H8.21777V91H7.08252V86.0928L7.10449 85.126L7.14111 84.1738L2.80518 91H1.28906V82.9727H2.43164ZM14.9634 89.8281L15.1904 89.147L15.5054 88.2827L17.6807 82.9873H19.2261V91H18.1494V84.3716L18.0029 84.7964L17.5781 85.917L15.5054 91H14.4873L12.4146 85.9023C12.1558 85.248 11.9775 84.7378 11.8799 84.3716V91H10.7959V82.9873H12.2827L14.3848 88.0776C14.5947 88.6147 14.7876 89.1982 14.9634 89.8281ZM21.4087 86.188C21.4087 84.4302 21.6675 83.0605 22.1851 82.0791C22.7026 81.0928 23.5229 80.4775 24.646 80.2334C26.0425 79.9355 27.2729 79.6938 28.3374 79.5083L28.5645 80.5776C26.8701 80.8608 25.6592 81.0854 24.9316 81.2515C24.2236 81.4126 23.6914 81.7935 23.335 82.394C22.9834 82.9946 22.7905 83.8125 22.7563 84.8477H22.8442C23.147 84.4375 23.5376 84.1152 24.0161 83.8809C24.4946 83.6465 24.9951 83.5293 25.5176 83.5293C26.5039 83.5293 27.2729 83.8491 27.8247 84.4888C28.3765 85.1284 28.6523 86.0146 28.6523 87.1475C28.6523 88.4023 28.3325 89.3838 27.6929 90.0918C27.0532 90.7949 26.1621 91.1465 25.0195 91.1465C23.8916 91.1465 23.0078 90.7144 22.3682 89.8501C21.7285 88.9858 21.4087 87.7651 21.4087 86.188ZM25.1294 90.1284C26.6187 90.1284 27.3633 89.1787 27.3633 87.2793C27.3633 85.4678 26.687 84.562 25.3345 84.562C24.9634 84.562 24.6045 84.6401 24.2578 84.7964C23.916 84.9478 23.6011 85.1504 23.313 85.4043C23.0298 85.6582 22.8101 85.9194 22.6538 86.188C22.6538 87.4722 22.8564 88.4512 23.2617 89.125C23.667 89.7939 24.2896 90.1284 25.1294 90.1284ZM31.9189 82.9727V88.063L31.8677 89.396L31.8457 89.8135L36.189 82.9727H37.7051V91H36.5698V86.0928L36.5918 85.126L36.6284 84.1738L32.2925 91H30.7764V82.9727H31.9189ZM44.0186 91.1465C43.4961 91.1465 43.0176 91.0513 42.583 90.8608C42.1533 90.6655 41.792 90.3677 41.499 89.9673H41.4111C41.4697 90.436 41.499 90.8804 41.499 91.3003V94.6035H40.2832V82.9727H41.272L41.4404 84.0713H41.499C41.8115 83.6318 42.1753 83.3145 42.5903 83.1191C43.0054 82.9238 43.4814 82.8262 44.0186 82.8262C45.083 82.8262 45.9033 83.1899 46.4795 83.9175C47.0605 84.645 47.3511 85.6655 47.3511 86.979C47.3511 88.2974 47.0557 89.3228 46.4648 90.0552C45.8789 90.7827 45.0635 91.1465 44.0186 91.1465ZM43.8428 83.8589C43.0225 83.8589 42.4292 84.0859 42.063 84.54C41.6968 84.9941 41.5088 85.7168 41.499 86.708V86.979C41.499 88.1069 41.687 88.915 42.063 89.4033C42.439 89.8867 43.042 90.1284 43.8721 90.1284C44.5654 90.1284 45.1074 89.8477 45.498 89.2861C45.8936 88.7246 46.0913 87.9507 46.0913 86.9644C46.0913 85.9634 45.8936 85.1968 45.498 84.6646C45.1074 84.1274 44.5557 83.8589 43.8428 83.8589ZM49.8853 91H48.4644L50.7715 87.6089C50.1514 87.4722 49.6753 87.2085 49.3433 86.8179C49.0161 86.4224 48.8525 85.9268 48.8525 85.3311C48.8525 84.5986 49.0991 84.0225 49.5923 83.6025C50.0854 83.1826 50.7739 82.9727 51.6577 82.9727H55.2319V91H54.0161V87.792H51.9873L49.8853 91ZM50.0391 85.3457C50.0391 86.2734 50.7129 86.7373 52.0605 86.7373H54.0161V84.0273H51.8115C50.6299 84.0273 50.0391 84.4668 50.0391 85.3457ZM59.0918 89.2568L59.2017 89.4253C59.0747 89.9136 58.8916 90.48 58.6523 91.1245C58.4131 91.7739 58.1641 92.377 57.9053 92.9336H56.9897C57.1216 92.4258 57.2656 91.7983 57.4219 91.0513C57.583 90.3042 57.6953 89.7061 57.7588 89.2568H59.0918ZM70.8032 84.0127H68.1958V91H66.98V84.0127H64.4019V82.9727H70.8032V84.0127ZM76.5601 89.8281L76.7871 89.147L77.1021 88.2827L79.2773 82.9873H80.8228V91H79.7461V84.3716L79.5996 84.7964L79.1748 85.917L77.1021 91H76.084L74.0112 85.9023C73.7524 85.248 73.5742 84.7378 73.4766 84.3716V91H72.3926V82.9873H73.8794L75.9814 88.0776C76.1914 88.6147 76.3843 89.1982 76.5601 89.8281ZM84.5654 82.9727V88.063L84.5142 89.396L84.4922 89.8135L88.8354 82.9727H90.3516V91H89.2163V86.0928L89.2383 85.126L89.2749 84.1738L84.939 91H83.4229V82.9727H84.5654ZM94.1455 82.9727V86.3345H98.6426V82.9727H99.8584V91H98.6426V87.3818H94.1455V91H92.9297V82.9727H94.1455ZM107.373 91L107.131 89.8574H107.073C106.672 90.3604 106.272 90.7021 105.872 90.8828C105.476 91.0586 104.98 91.1465 104.385 91.1465C103.589 91.1465 102.964 90.9414 102.51 90.5312C102.061 90.1211 101.836 89.5376 101.836 88.7808C101.836 87.1597 103.132 86.3101 105.725 86.2319L107.087 86.188V85.6899C107.087 85.0601 106.951 84.5962 106.677 84.2983C106.409 83.9956 105.977 83.8442 105.381 83.8442C104.712 83.8442 103.955 84.0493 103.11 84.4595L102.737 83.5293C103.132 83.3145 103.564 83.146 104.033 83.0239C104.507 82.9019 104.98 82.8408 105.454 82.8408C106.411 82.8408 107.119 83.0532 107.578 83.478C108.042 83.9028 108.274 84.584 108.274 85.5215V91H107.373ZM104.626 90.1431C105.383 90.1431 105.977 89.9355 106.406 89.5205C106.841 89.1055 107.058 88.5244 107.058 87.7773V87.0522L105.842 87.1035C104.875 87.1377 104.177 87.2891 103.748 87.5576C103.323 87.8213 103.11 88.2339 103.11 88.7954C103.11 89.2349 103.242 89.5693 103.506 89.7988C103.774 90.0283 104.148 90.1431 104.626 90.1431ZM115.825 82.9727V88.063L115.774 89.396L115.752 89.8135L120.095 82.9727H121.611V91H120.476V86.0928L120.498 85.126L120.535 84.1738L116.199 91H114.683V82.9727H115.825ZM135.059 93.7759H133.879V91H128.269V93.7759H127.097V89.9526H127.727C128.381 89.064 128.894 88.0215 129.265 86.8252C129.636 85.6289 129.829 84.3447 129.844 82.9727H133.909V89.9526H135.059V93.7759ZM132.737 89.9526V83.9321H130.935C130.872 85.0161 130.662 86.1147 130.305 87.228C129.954 88.3364 129.514 89.2446 128.987 89.9526H132.737ZM140.405 91.1465C139.883 91.1465 139.404 91.0513 138.97 90.8608C138.54 90.6655 138.179 90.3677 137.886 89.9673H137.798C137.856 90.436 137.886 90.8804 137.886 91.3003V94.6035H136.67V82.9727H137.659L137.827 84.0713H137.886C138.198 83.6318 138.562 83.3145 138.977 83.1191C139.392 82.9238 139.868 82.8262 140.405 82.8262C141.47 82.8262 142.29 83.1899 142.866 83.9175C143.447 84.645 143.738 85.6655 143.738 86.979C143.738 88.2974 143.442 89.3228 142.852 90.0552C142.266 90.7827 141.45 91.1465 140.405 91.1465ZM140.229 83.8589C139.409 83.8589 138.816 84.0859 138.45 84.54C138.083 84.9941 137.896 85.7168 137.886 86.708V86.979C137.886 88.1069 138.074 88.915 138.45 89.4033C138.826 89.8867 139.429 90.1284 140.259 90.1284C140.952 90.1284 141.494 89.8477 141.885 89.2861C142.28 88.7246 142.478 87.9507 142.478 86.9644C142.478 85.9634 142.28 85.1968 141.885 84.6646C141.494 84.1274 140.942 83.8589 140.229 83.8589ZM144.595 82.9727H145.898L147.656 87.5503C148.042 88.5952 148.281 89.3496 148.374 89.8135H148.433C148.496 89.5645 148.628 89.1396 148.828 88.5391C149.033 87.9336 149.697 86.0781 150.82 82.9727H152.124L148.674 92.1133C148.333 93.0166 147.932 93.6562 147.473 94.0322C147.019 94.4131 146.46 94.6035 145.796 94.6035C145.425 94.6035 145.059 94.562 144.697 94.479V93.5049C144.966 93.5635 145.266 93.5928 145.598 93.5928C146.433 93.5928 147.029 93.124 147.385 92.1865L147.832 91.0439L144.595 82.9727ZM158.262 84.0127H154.644V91H153.428V82.9727H158.262V84.0127ZM161.001 82.9727V88.063L160.95 89.396L160.928 89.8135L165.271 82.9727H166.787V91H165.652V86.0928L165.674 85.126L165.71 84.1738L161.375 91H159.858V82.9727H161.001ZM171.299 86.8911L168.508 82.9727H169.893L172.009 86.0488L174.119 82.9727H175.488L172.698 86.8911L175.635 91H174.258L172.009 87.748L169.739 91H168.362L171.299 86.8911ZM186.541 84.0127H183.933V91H182.717V84.0127H180.139V82.9727H186.541V84.0127ZM191.865 91.1465C191.343 91.1465 190.864 91.0513 190.43 90.8608C190 90.6655 189.639 90.3677 189.346 89.9673H189.258C189.316 90.436 189.346 90.8804 189.346 91.3003V94.6035H188.13V82.9727H189.119L189.287 84.0713H189.346C189.658 83.6318 190.022 83.3145 190.437 83.1191C190.852 82.9238 191.328 82.8262 191.865 82.8262C192.93 82.8262 193.75 83.1899 194.326 83.9175C194.907 84.645 195.198 85.6655 195.198 86.979C195.198 88.2974 194.902 89.3228 194.312 90.0552C193.726 90.7827 192.91 91.1465 191.865 91.1465ZM191.689 83.8589C190.869 83.8589 190.276 84.0859 189.91 84.54C189.543 84.9941 189.355 85.7168 189.346 86.708V86.979C189.346 88.1069 189.534 88.915 189.91 89.4033C190.286 89.8867 190.889 90.1284 191.719 90.1284C192.412 90.1284 192.954 89.8477 193.345 89.2861C193.74 88.7246 193.938 87.9507 193.938 86.9644C193.938 85.9634 193.74 85.1968 193.345 84.6646C192.954 84.1274 192.402 83.8589 191.689 83.8589ZM202.266 91L202.024 89.8574H201.965C201.565 90.3604 201.165 90.7021 200.764 90.8828C200.369 91.0586 199.873 91.1465 199.277 91.1465C198.481 91.1465 197.856 90.9414 197.402 90.5312C196.953 90.1211 196.729 89.5376 196.729 88.7808C196.729 87.1597 198.025 86.3101 200.618 86.2319L201.98 86.188V85.6899C201.98 85.0601 201.843 84.5962 201.57 84.2983C201.301 83.9956 200.869 83.8442 200.273 83.8442C199.604 83.8442 198.848 84.0493 198.003 84.4595L197.629 83.5293C198.025 83.3145 198.457 83.146 198.926 83.0239C199.399 82.9019 199.873 82.8408 200.347 82.8408C201.304 82.8408 202.012 83.0532 202.471 83.478C202.935 83.9028 203.167 84.584 203.167 85.5215V91H202.266ZM199.519 90.1431C200.276 90.1431 200.869 89.9355 201.299 89.5205C201.733 89.1055 201.951 88.5244 201.951 87.7773V87.0522L200.735 87.1035C199.768 87.1377 199.07 87.2891 198.64 87.5576C198.215 87.8213 198.003 88.2339 198.003 88.7954C198.003 89.2349 198.135 89.5693 198.398 89.7988C198.667 90.0283 199.041 90.1431 199.519 90.1431ZM212.19 84.9868C212.19 85.5093 212.039 85.9072 211.736 86.1807C211.438 86.4492 211.018 86.6299 210.476 86.7227V86.7886C211.16 86.8813 211.658 87.0815 211.97 87.3892C212.288 87.6968 212.446 88.1216 212.446 88.6636C212.446 89.4106 212.17 89.9868 211.619 90.3921C211.072 90.7974 210.271 91 209.216 91H205.679V82.9727H209.202C211.194 82.9727 212.19 83.644 212.19 84.9868ZM211.23 88.583C211.23 88.1484 211.064 87.8335 210.732 87.6382C210.405 87.438 209.861 87.3379 209.099 87.3379H206.895V89.9819H209.128C210.53 89.9819 211.23 89.5156 211.23 88.583ZM211.003 85.104C211.003 84.7134 210.852 84.4375 210.549 84.2764C210.251 84.1104 209.797 84.0273 209.187 84.0273H206.895V86.2905H208.953C209.705 86.2905 210.234 86.1978 210.542 86.0122C210.85 85.8267 211.003 85.5239 211.003 85.104Z" fill="white"></path></svg>