<svg xmlns="http://www.w3.org/2000/svg" width="451" height="64" viewBox="0 0 451 64" fill="none"><path d="M37.33 17.12C37.33 7.345 28.66 0.629995 18.885 0.629995C9.11 0.629995 0.44 7.345 0.44 17.97V46.53C0.44 57.155 9.195 63.87 19.225 63.87C29.68 63.87 37.33 57.155 37.33 46.53V35.65C37.33 34.545 36.565 33.78 35.46 33.78H20.84C19.735 33.78 18.97 34.545 18.97 35.65V40.24C18.97 41.43 19.735 42.11 20.84 42.11H27.98V45.85C27.98 52.905 21.52 54.52 18.885 54.52C15.74 54.52 9.79 52.905 9.79 44.83V19.67C9.79 11.595 15.74 9.98 18.885 9.98C22.03 9.98 27.98 11.595 27.98 17.8V18.735C27.98 19.84 28.745 20.605 29.85 20.605H35.46C36.565 20.605 37.33 19.84 37.33 18.735V17.12ZM57.7134 41.43H63.7484L72.7584 60.215C73.1834 61.15 74.5434 62 75.6484 62H82.4484C83.5534 62 83.8934 60.81 83.2134 59.535L73.1834 40.07C79.4734 37.265 82.7884 32.93 82.7884 24.6V16.78C82.7884 7.94 74.9684 2.5 65.4484 2.5H50.2334C49.1284 2.5 48.3634 3.265 48.3634 4.37V60.13C48.3634 61.235 49.1284 62 50.2334 62H55.8434C56.9484 62 57.7134 61.235 57.7134 60.13V41.43ZM57.7134 10.83H63.8334C68.8484 10.83 73.4384 12.53 73.4384 18.99V24.6C73.4384 31.06 68.5084 33.015 64.9384 33.015H57.7134V10.83ZM129.862 46.53V4.37C129.862 3.265 129.097 2.5 127.992 2.5H122.382C121.277 2.5 120.512 3.265 120.512 4.37V44.83C120.512 52.905 114.987 54.52 111.927 54.52C108.782 54.52 103.172 52.905 103.172 44.83V4.37C103.172 3.265 102.407 2.5 101.302 2.5H95.6918C94.5868 2.5 93.8218 3.265 93.8218 4.37V46.53C93.8218 57.155 102.152 63.87 111.927 63.87C121.702 63.87 129.862 57.155 129.862 46.53ZM179.06 4.37C179.06 3.265 178.295 2.5 177.19 2.5H139.96C138.855 2.5 138.09 3.265 138.09 4.37V9.045C138.09 10.15 138.855 10.915 139.96 10.915H153.9V60.13C153.9 61.235 154.665 62 155.77 62H161.38C162.485 62 163.25 61.235 163.25 60.13V10.915H177.19C178.295 10.915 179.06 10.15 179.06 9.045V4.37ZM206.567 36.075C206.057 36.075 205.717 36.415 205.717 36.925V39.135C205.717 39.56 206.057 39.9 206.567 39.9H243.117C243.627 39.9 243.967 39.39 243.967 39.05V36.925C243.967 36.415 243.627 36.075 243.117 36.075H206.567ZM281.844 29.7C281.334 29.7 280.994 30.04 280.994 30.55V32.675C280.994 33.185 281.334 33.525 281.844 33.525H305.134V43.3C305.134 53.925 299.609 58.6 292.384 58.6C285.159 58.6 279.634 53.925 279.634 45.34V44.15C279.634 42.79 279.294 42.45 278.784 42.45H276.234C275.724 42.45 275.384 42.79 275.384 43.3V45.85C275.384 55.625 282.609 62.85 292.384 62.85C302.414 62.85 309.384 55.625 309.384 45V19.5C309.384 8.875 302.159 1.65 292.384 1.65C282.609 1.65 275.384 8.875 275.384 18.225V20.775C275.384 21.285 275.724 21.625 276.234 21.625H278.784C279.294 21.625 279.634 21.285 279.634 20.775V19.925C279.634 10.575 285.159 5.9 292.384 5.9C299.609 5.9 305.134 10.575 305.134 21.2V29.7H281.844ZM359.517 3.35C359.517 2.84 359.177 2.5 358.667 2.5H320.417C319.907 2.5 319.567 2.84 319.567 3.35V5.475C319.567 5.985 319.907 6.325 320.417 6.325H337.417V61.15C337.417 61.66 337.757 62 338.267 62H340.817C341.327 62 341.667 61.66 341.667 61.15V6.325H358.667C359.177 6.325 359.517 5.985 359.517 5.475V3.35ZM403.701 45V19.5C403.701 8.875 396.051 1.65 386.276 1.65C376.501 1.65 368.851 8.875 368.851 19.5V45C368.851 55.625 376.501 62.85 386.531 62.85C396.051 62.85 403.701 55.625 403.701 45ZM373.101 21.2C373.101 10.575 379.051 5.9 386.276 5.9C393.501 5.9 399.451 10.575 399.451 21.2V43.3C399.451 53.925 393.501 58.6 386.276 58.6C379.051 58.6 373.101 53.925 373.101 43.3V21.2ZM415.924 56.05C415.499 56.05 415.159 56.39 415.159 56.815V61.235C415.159 61.83 415.499 62 415.924 62H420.344C420.769 62 421.109 61.66 421.109 61.235V56.815C421.109 56.39 420.769 56.05 420.344 56.05H415.924ZM430.884 56.05C430.289 56.05 430.034 56.39 430.034 56.815V61.235C430.034 61.83 430.289 62 430.884 62H435.219C435.729 62 435.899 61.66 435.899 61.235V56.815C435.899 56.39 435.729 56.05 435.219 56.05H430.884ZM445.589 56.05C445.079 56.05 444.824 56.39 444.824 56.815V61.235C444.824 61.83 445.079 62 445.589 62H449.839C450.434 62 450.689 61.66 450.689 61.235V56.815C450.689 56.39 450.434 56.05 449.839 56.05H445.589Z" fill="white"></path></svg>