<svg xmlns="http://www.w3.org/2000/svg" width="209" height="64" viewBox="0 0 209 64" fill="none"><path d="M37.0615 46.53V17.97C37.0615 7.345 28.3915 0.629995 18.6165 0.629995C8.8415 0.629995 0.171501 7.345 0.171501 17.97V46.53C0.171501 57.155 8.8415 63.87 18.8715 63.87C28.3915 63.87 37.0615 57.155 37.0615 46.53ZM9.5215 19.67C9.5215 11.595 15.4715 9.98 18.6165 9.98C21.7615 9.98 27.7115 11.595 27.7115 19.67V44.83C27.7115 52.905 21.7615 54.52 18.6165 54.52C15.4715 54.52 9.5215 52.905 9.5215 44.83V19.67ZM87.3483 4.37C87.3483 3.265 86.5833 2.5 85.4783 2.5H79.8683C78.7633 2.5 77.9983 3.265 77.9983 4.37V60.13C77.9983 61.235 78.7633 62 79.8683 62H85.4783C86.5833 62 87.3483 61.235 87.3483 60.13V35.565H104.518V60.13C104.518 61.235 105.283 62 106.388 62H111.998C113.103 62 113.868 61.235 113.868 60.13V4.37C113.868 3.265 113.103 2.5 111.998 2.5H106.388C105.283 2.5 104.518 3.265 104.518 4.37V27.15H87.3483V4.37ZM140.287 2.5C139.182 2.5 138.247 3.435 137.907 4.455L121.162 60.3C120.907 61.32 121.162 62 122.267 62H128.897C130.087 62 130.682 61.15 131.022 60.13L133.997 49.675H151.337L154.057 60.13C154.312 61.235 154.822 62 155.927 62H162.812C164.002 62 164.512 61.235 164.257 60.13L149.297 4.37C149.042 3.35 148.107 2.5 147.002 2.5H140.287ZM143.177 16.695L149.297 41.685H135.952L143.177 16.695ZM208.355 17.97C208.355 7.345 199.685 0.629995 189.91 0.629995C180.135 0.629995 171.465 7.345 171.465 17.97V46.53C171.465 57.155 180.22 63.87 190.25 63.87C200.705 63.87 208.355 57.155 208.355 46.53V45C208.355 43.895 207.59 43.13 206.485 43.13H200.875C199.77 43.13 199.005 43.895 199.005 45V45.85C199.005 52.905 192.545 54.52 189.91 54.52C186.765 54.52 180.815 52.905 180.815 44.83V19.67C180.815 11.595 186.765 9.98 189.91 9.98C193.055 9.98 199.005 11.595 199.005 18.65V19.585C199.005 20.69 199.77 21.455 200.875 21.455H206.485C207.59 21.455 208.355 20.69 208.355 19.585V17.97Z" fill="white"></path></svg>