<svg width="651" height="171" viewBox="0 0 651 171" fill="none" xmlns="http://www.w3.org/2000/svg">
<path d="M10.895 10.83H30.785C31.8899 10.83 32.6549 10.065 32.6549 8.96001V4.37001C32.6549 3.26501 31.8899 2.50001 30.785 2.50001H3.41495C2.30995 2.50001 1.54495 3.26501 1.54495 4.37001V60.13C1.54495 61.235 2.30995 62 3.41495 62H18.6299C28.0649 62 35.97 56.645 35.97 47.805V41.175C35.97 31.825 30.1049 24.77 18.6299 24.77H10.895V10.83ZM10.895 33.185H17.1849C21.86 33.185 26.62 34.715 26.62 41.175V45.595C26.62 52.055 22.03 53.67 17.1 53.67H10.895V33.185ZM62.7284 2.50001C61.6234 2.50001 60.6884 3.43501 60.3484 4.45501L43.6034 60.3C43.3484 61.32 43.6034 62 44.7084 62H51.3384C52.5284 62 53.1234 61.15 53.4634 60.13L56.4384 49.675H73.7784L76.4984 60.13C76.7533 61.235 77.2634 62 78.3684 62H85.2534C86.4434 62 86.9534 61.235 86.6984 60.13L71.7384 4.37001C71.4834 3.35001 70.5484 2.50001 69.4434 2.50001H62.7284ZM65.6184 16.695L71.7384 41.685H58.3933L65.6184 16.695ZM103.257 4.37001C103.257 3.26501 102.492 2.50001 101.387 2.50001H95.7768C94.6718 2.50001 93.9068 3.26501 93.9068 4.37001V60.13C93.9068 61.235 94.6718 62 95.7768 62H101.387C102.492 62 103.257 61.235 103.257 60.13V35.565H120.427V60.13C120.427 61.235 121.192 62 122.297 62H127.907C129.012 62 129.777 61.235 129.777 60.13V4.37001C129.777 3.26501 129.012 2.50001 127.907 2.50001H122.297C121.192 2.50001 120.427 3.26501 120.427 4.37001V27.15H103.257V4.37001ZM150.16 4.37001C150.16 3.26501 149.395 2.50001 148.29 2.50001H142.68C141.575 2.50001 140.81 3.26501 140.81 4.37001V60.13C140.81 61.235 141.575 62 142.68 62H148.29C149.395 62 150.16 61.235 150.16 60.13V4.37001ZM151.265 30.72C150.925 31.485 151.01 32.675 151.35 33.355L165.29 58.685C166.31 60.555 167.415 62 169.795 62H176.425C177.53 62 178.72 60.98 177.7 59.365L160.87 31.23L176.68 4.62501C177.105 3.86001 176.765 2.50001 175.405 2.50001H168.775C167.415 2.50001 166.225 3.09501 165.63 4.28501L151.265 30.72ZM192.304 2.50001C191.199 2.50001 190.434 3.26501 190.434 4.37001V60.13C190.434 61.235 191.199 62 192.304 62H219.164C220.269 62 221.034 61.32 221.034 60.13V54.945C221.034 53.84 220.269 53.075 219.164 53.075H199.784V35.225H217.634C218.739 35.225 219.504 34.46 219.504 33.355V28.68C219.504 27.575 218.739 26.81 217.634 26.81H199.784V11.425H219.164C220.269 11.425 221.034 10.66 221.034 9.55501V4.37001C221.034 3.26501 220.269 2.50001 219.164 2.50001H192.304ZM272.527 4.37001C272.527 3.26501 271.762 2.50001 270.657 2.50001H233.427C232.322 2.50001 231.557 3.26501 231.557 4.37001V9.04501C231.557 10.15 232.322 10.915 233.427 10.915H247.367V60.13C247.367 61.235 248.132 62 249.237 62H254.847C255.952 62 256.717 61.235 256.717 60.13V10.915H270.657C271.762 10.915 272.527 10.15 272.527 9.04501V4.37001ZM355.964 16.1C355.964 9.55501 350.099 2.50001 340.494 2.50001H324.089C322.984 2.50001 322.219 3.26501 322.219 4.37001V60.13C322.219 61.235 322.984 62 324.089 62H341.514C352.054 62 358.599 53.585 358.599 46.955V43.385C358.599 36.585 352.649 31.4 348.059 30.805C351.034 30.21 355.964 25.705 355.964 19.585V16.1ZM349.249 45.17C349.249 49.93 345.169 53.67 339.389 53.67H331.569V34.715H338.964C344.404 34.715 349.249 37.265 349.249 43.045V45.17ZM331.569 10.83H338.029C343.384 10.83 346.614 14.145 346.614 17.545V19.415C346.614 24.175 342.024 27.32 338.029 27.32H331.569V10.83ZM444.331 17.12C444.331 7.34501 435.661 0.630005 425.886 0.630005C416.111 0.630005 407.441 7.34501 407.441 17.97V46.53C407.441 57.155 416.196 63.87 426.226 63.87C436.681 63.87 444.331 57.155 444.331 46.53V35.65C444.331 34.545 443.566 33.78 442.461 33.78H427.841C426.736 33.78 425.971 34.545 425.971 35.65V40.24C425.971 41.43 426.736 42.11 427.841 42.11H434.981V45.85C434.981 52.905 428.521 54.52 425.886 54.52C422.741 54.52 416.791 52.905 416.791 44.83V19.67C416.791 11.595 422.741 9.98001 425.886 9.98001C429.031 9.98001 434.981 11.595 434.981 17.8V18.735C434.981 19.84 435.746 20.605 436.851 20.605H442.461C443.566 20.605 444.331 19.84 444.331 18.735V17.12ZM464.714 41.43H470.749L479.759 60.215C480.184 61.15 481.544 62 482.649 62H489.449C490.554 62 490.894 60.81 490.214 59.535L480.184 40.07C486.474 37.265 489.789 32.93 489.789 24.6V16.78C489.789 7.94001 481.969 2.50001 472.449 2.50001H457.234C456.129 2.50001 455.364 3.26501 455.364 4.37001V60.13C455.364 61.235 456.129 62 457.234 62H462.844C463.949 62 464.714 61.235 464.714 60.13V41.43ZM464.714 10.83H470.834C475.849 10.83 480.439 12.53 480.439 18.99V24.6C480.439 31.06 475.509 33.015 471.939 33.015H464.714V10.83ZM536.862 46.53V4.37001C536.862 3.26501 536.097 2.50001 534.992 2.50001H529.382C528.277 2.50001 527.512 3.26501 527.512 4.37001V44.83C527.512 52.905 521.987 54.52 518.927 54.52C515.782 54.52 510.172 52.905 510.172 44.83V4.37001C510.172 3.26501 509.407 2.50001 508.302 2.50001H502.692C501.587 2.50001 500.822 3.26501 500.822 4.37001V46.53C500.822 57.155 509.152 63.87 518.927 63.87C528.702 63.87 536.862 57.155 536.862 46.53ZM586.061 4.37001C586.061 3.26501 585.296 2.50001 584.191 2.50001H546.961C545.856 2.50001 545.091 3.26501 545.091 4.37001V9.04501C545.091 10.15 545.856 10.915 546.961 10.915H560.901V60.13C560.901 61.235 561.666 62 562.771 62H568.381C569.486 62 570.251 61.235 570.251 60.13V10.915H584.191C585.296 10.915 586.061 10.15 586.061 9.04501V4.37001ZM612.718 36.075C612.208 36.075 611.868 36.415 611.868 36.925V39.135C611.868 39.56 612.208 39.9 612.718 39.9H649.268C649.778 39.9 650.118 39.39 650.118 39.05V36.925C650.118 36.415 649.778 36.075 649.268 36.075H612.718ZM7.40995 123.7C6.89995 123.7 6.55995 124.04 6.55995 124.55V126.675C6.55995 127.185 6.89995 127.525 7.40995 127.525H30.7V137.3C30.7 147.925 25.175 152.6 17.95 152.6C10.725 152.6 5.19995 147.925 5.19995 139.34V138.15C5.19995 136.79 4.85995 136.45 4.34995 136.45H1.79995C1.28995 136.45 0.949951 136.79 0.949951 137.3V139.85C0.949951 149.625 8.17495 156.85 17.95 156.85C27.9799 156.85 34.95 149.625 34.95 139V113.5C34.95 102.875 27.725 95.65 17.95 95.65C8.17495 95.65 0.949951 102.875 0.949951 112.225V114.775C0.949951 115.285 1.28995 115.625 1.79995 115.625H4.34995C4.85995 115.625 5.19995 115.285 5.19995 114.775V113.925C5.19995 104.575 10.725 99.9 17.95 99.9C25.175 99.9 30.7 104.575 30.7 115.2V123.7H7.40995ZM85.0834 97.35C85.0834 96.84 84.7434 96.5 84.2334 96.5H45.9833C45.4734 96.5 45.1334 96.84 45.1334 97.35V99.475C45.1334 99.985 45.4734 100.325 45.9833 100.325H62.9833V155.15C62.9833 155.66 63.3234 156 63.8334 156H66.3834C66.8934 156 67.2334 155.66 67.2334 155.15V100.325H84.2334C84.7434 100.325 85.0834 99.985 85.0834 99.475V97.35ZM129.267 139V113.5C129.267 102.875 121.617 95.65 111.842 95.65C102.067 95.65 94.4168 102.875 94.4168 113.5V139C94.4168 149.625 102.067 156.85 112.097 156.85C121.617 156.85 129.267 149.625 129.267 139ZM98.6668 115.2C98.6668 104.575 104.617 99.9 111.842 99.9C119.067 99.9 125.017 104.575 125.017 115.2V137.3C125.017 147.925 119.067 152.6 111.842 152.6C104.617 152.6 98.6668 147.925 98.6668 137.3V115.2ZM206.074 97.35C206.244 96.84 205.989 96.5 205.479 96.5H202.249C201.739 96.5 201.569 96.84 201.399 97.35L187.289 137.555L170.204 97.35C170.034 96.84 169.864 96.5 169.354 96.5H166.124C165.614 96.5 165.274 96.84 165.529 97.35L185.079 142.995C183.379 148.18 180.234 151.75 176.919 151.75H175.984C175.474 151.75 175.134 152.09 175.134 152.6V155.15C175.134 155.66 175.474 156 175.984 156H177.004C186.779 156 190.519 140.275 192.389 135.175L206.074 97.35ZM246.092 156V169.6C246.092 169.94 246.432 170.45 246.942 170.45H249.492C250.002 170.45 250.342 169.94 250.342 169.6V153.025C250.342 152.515 250.002 152.175 249.492 152.175H245.922V97.35C245.922 96.84 245.582 96.5 245.072 96.5H220.847C220.337 96.5 219.997 96.84 219.997 97.35V124.55C219.997 145.29 217.447 152.175 213.197 152.175H212.092C211.582 152.175 211.242 152.515 211.242 153.025V169.6C211.242 170.11 211.582 170.45 212.092 170.45H214.642C215.152 170.45 215.492 170.11 215.492 169.6V156H246.092ZM224.247 124.55V100.325H241.672V152.175H220.082C222.887 148.52 224.247 141.975 224.247 124.55ZM295.375 139V113.5C295.375 102.875 287.725 95.65 277.95 95.65C268.175 95.65 260.525 102.875 260.525 113.5V139C260.525 149.625 268.175 156.85 278.205 156.85C287.725 156.85 295.375 149.625 295.375 139ZM264.775 115.2C264.775 104.575 270.725 99.9 277.95 99.9C285.175 99.9 291.125 104.575 291.125 115.2V137.3C291.125 147.925 285.175 152.6 277.95 152.6C270.725 152.6 264.775 147.925 264.775 137.3V115.2ZM313.634 100.75H336.584C337.094 100.75 337.434 100.41 337.434 99.9V97.35C337.434 96.84 337.094 96.5 336.584 96.5H310.234C309.724 96.5 309.384 96.84 309.384 97.35V155.15C309.384 155.66 309.724 156 310.234 156H325.959C334.884 156 341.259 149.625 341.259 141.125V135.005C341.259 127.355 334.714 120.47 325.959 120.47H313.634V100.75ZM313.634 124.295H325.534C332.334 124.295 337.009 129.055 337.009 136.705V139.425C337.009 147.075 332.079 151.75 326.129 151.75H313.634V124.295ZM358.242 97.35C358.242 96.84 357.902 96.5 357.392 96.5H354.842C354.332 96.5 353.992 96.84 353.992 97.35V155.15C353.992 155.66 354.332 156 354.842 156H357.392C357.902 156 358.242 155.66 358.242 155.15V127.355H384.592V155.15C384.592 155.66 384.932 156 385.442 156H387.992C388.502 156 388.842 155.66 388.842 155.15V97.35C388.842 96.84 388.502 96.5 387.992 96.5H385.442C384.932 96.5 384.592 96.84 384.592 97.35V123.53H358.242V97.35ZM435.576 139V113.5C435.576 102.875 427.926 95.65 418.151 95.65C408.376 95.65 400.726 102.875 400.726 113.5V139C400.726 149.625 408.376 156.85 418.406 156.85C427.926 156.85 435.576 149.625 435.576 139ZM404.976 115.2C404.976 104.575 410.926 99.9 418.151 99.9C425.376 99.9 431.326 104.575 431.326 115.2V137.3C431.326 147.925 425.376 152.6 418.151 152.6C410.926 152.6 404.976 147.925 404.976 137.3V115.2Z" fill="white"/>
</svg>
