<svg xmlns="http://www.w3.org/2000/svg" width="371" height="179" viewBox="0 0 371 179" fill="none"><path d="M39.75 0.249996C53.25 0.249996 63.1667 4.24999 69.5 12.25C76 20.25 79.25 30.9167 79.25 44.25V59.25H60.75V43.25C60.75 35.25 59.0833 29.0833 55.75 24.75C52.5833 20.25 47.4167 18 40.25 18C33.25 18 28.0833 20.25 24.75 24.75C21.4167 29.0833 19.75 35.25 19.75 43.25V135.75C19.75 143.75 21.4167 150 24.75 154.5C28.0833 158.833 33.25 161 40.25 161C47.4167 161 52.5833 158.833 55.75 154.5C59.0833 150 60.75 143.75 60.75 135.75V100.75H42.75V83.25H79.25V134.75C79.25 148.083 76 158.75 69.5 166.75C63.1667 174.75 53.25 178.75 39.75 178.75C26.4167 178.75 16.5 174.75 10 166.75C3.66667 158.75 0.5 148.083 0.5 134.75V44.25C0.5 37.5833 1.25 31.5833 2.75 26.25C4.41667 20.75 6.83333 16.0833 10 12.25C13.3333 8.41666 17.4167 5.49999 22.25 3.5C27.25 1.33333 33.0833 0.249996 39.75 0.249996ZM136.703 1.99999C150.536 1.99999 160.453 5.41666 166.453 12.25C172.62 19.0833 175.703 29 175.703 42V56.25C175.703 65.9167 173.953 73.75 170.453 79.75C166.953 85.75 161.453 89.9167 153.953 92.25C161.953 94.5833 167.62 98.9167 170.953 105.25C174.286 111.417 175.953 119.25 175.953 128.75V156C175.953 159.833 176.12 163.583 176.453 167.25C176.786 170.75 177.786 174 179.453 177H159.703C158.536 174.5 157.703 171.833 157.203 169C156.703 166 156.453 161.583 156.453 155.75V128.25C156.453 118.417 154.203 111.667 149.703 108C145.37 104.167 139.12 102.25 130.953 102.25H117.203V177H97.7031V1.99999H136.703ZM131.703 84.5C139.536 84.5 145.62 82.9167 149.953 79.75C154.286 76.4167 156.453 70 156.453 60.5V43.75C156.453 35.75 154.87 29.75 151.703 25.75C148.703 21.75 143.536 19.75 136.203 19.75H117.203V84.5H131.703ZM214.592 135.75C214.592 143.75 216.175 150 219.342 154.5C222.675 158.833 227.925 161 235.092 161C242.092 161 247.175 158.833 250.342 154.5C253.675 150 255.342 143.75 255.342 135.75V1.99999H273.592V134.75C273.592 148.083 270.425 158.833 264.092 167C257.758 175 247.842 179 234.342 179C221.008 179 211.175 175 204.842 167C198.508 158.833 195.342 148.083 195.342 134.75V1.99999H214.592V135.75ZM318.271 177V19.75H286.021V1.99999H370.021V19.75H337.771V177H318.271Z" fill="white"></path></svg>
